<?xml version="1.0" encoding="UTF-8" standalone="no"?>
<!-- Created with Inkscape (http://www.inkscape.org/) -->

<svg
   xmlns:dc="http://purl.org/dc/elements/1.1/"
   xmlns:cc="http://creativecommons.org/ns#"
   xmlns:rdf="http://www.w3.org/1999/02/22-rdf-syntax-ns#"
   xmlns:svg="http://www.w3.org/2000/svg"
   xmlns="http://www.w3.org/2000/svg"
   xmlns:xlink="http://www.w3.org/1999/xlink"
   xmlns:sodipodi="http://sodipodi.sourceforge.net/DTD/sodipodi-0.dtd"
   xmlns:inkscape="http://www.inkscape.org/namespaces/inkscape"
   width="744.09448819"
   height="1052.3622047"
   id="svg2"
   version="1.1"
   inkscape:version="0.48.4 r9939"
   sodipodi:docname="logo.svg">
  <defs
     id="defs4">
    <linearGradient
       inkscape:collect="always"
       id="linearGradient3154">
      <stop
         style="stop-color:#ffffff;stop-opacity:1"
         offset="0"
         id="stop3156" />
      <stop
         style="stop-color:#ffffff;stop-opacity:0"
         offset="1"
         id="stop3158" />
    </linearGradient>
    <linearGradient
       inkscape:collect="always"
       id="linearGradient3371">
      <stop
         style="stop-color:#000000;stop-opacity:1;"
         offset="0"
         id="stop3373" />
      <stop
         style="stop-color:#000000;stop-opacity:0;"
         offset="1"
         id="stop3375" />
    </linearGradient>
    <linearGradient
       inkscape:collect="always"
       id="linearGradient3028">
      <stop
         style="stop-color:#000000;stop-opacity:1;"
         offset="0"
         id="stop3030" />
      <stop
         style="stop-color:#666666;stop-opacity:1"
         offset="1"
         id="stop3032" />
    </linearGradient>
    <linearGradient
       inkscape:collect="always"
       xlink:href="#linearGradient3028-6"
       id="linearGradient3254-7"
       gradientUnits="userSpaceOnUse"
       x1="1642.8572"
       y1="1195.2194"
       x2="1642.8572"
       y2="649.50507" />
    <linearGradient
       inkscape:collect="always"
       id="linearGradient3028-6">
      <stop
         style="stop-color:#000000;stop-opacity:1;"
         offset="0"
         id="stop3030-6" />
      <stop
         style="stop-color:#666666;stop-opacity:1"
         offset="1"
         id="stop3032-0" />
    </linearGradient>
    <linearGradient
       inkscape:collect="always"
       xlink:href="#linearGradient3028-1"
       id="linearGradient3254-2"
       gradientUnits="userSpaceOnUse"
       x1="1642.8572"
       y1="1195.2194"
       x2="1642.8572"
       y2="649.50507" />
    <linearGradient
       inkscape:collect="always"
       id="linearGradient3028-1">
      <stop
         style="stop-color:#000000;stop-opacity:1;"
         offset="0"
         id="stop3030-9" />
      <stop
         style="stop-color:#666666;stop-opacity:1"
         offset="1"
         id="stop3032-1" />
    </linearGradient>
    <linearGradient
       inkscape:collect="always"
       xlink:href="#linearGradient3371-9"
       id="linearGradient3531-2"
       gradientUnits="userSpaceOnUse"
       x1="2605.7144"
       y1="1200.9336"
       x2="2600"
       y2="780.93359"
       gradientTransform="matrix(0.16906517,0,0,0.16906517,-335.05478,82.543106)" />
    <linearGradient
       inkscape:collect="always"
       id="linearGradient3371-9">
      <stop
         style="stop-color:#000000;stop-opacity:1;"
         offset="0"
         id="stop3373-1" />
      <stop
         style="stop-color:#4d4d4d;stop-opacity:1"
         offset="1"
         id="stop3375-2" />
    </linearGradient>
    <linearGradient
       inkscape:collect="always"
       xlink:href="#linearGradient3028-4"
       id="linearGradient3254-5"
       gradientUnits="userSpaceOnUse"
       x1="1642.8572"
       y1="1195.2194"
       x2="1642.8572"
       y2="649.50507" />
    <linearGradient
       inkscape:collect="always"
       id="linearGradient3028-4">
      <stop
         style="stop-color:#000000;stop-opacity:1;"
         offset="0"
         id="stop3030-1" />
      <stop
         style="stop-color:#666666;stop-opacity:1"
         offset="1"
         id="stop3032-16" />
    </linearGradient>
    <linearGradient
       inkscape:collect="always"
       xlink:href="#linearGradient3371-9-8"
       id="linearGradient3531-2-0"
       gradientUnits="userSpaceOnUse"
       x1="2605.7144"
       y1="1200.9336"
       x2="2600"
       y2="780.93359"
       gradientTransform="matrix(0.16906517,0,0,0.16906517,-335.05478,82.543106)" />
    <linearGradient
       inkscape:collect="always"
       id="linearGradient3371-9-8">
      <stop
         style="stop-color:#000000;stop-opacity:1;"
         offset="0"
         id="stop3373-1-8" />
      <stop
         style="stop-color:#4d4d4d;stop-opacity:1"
         offset="1"
         id="stop3375-2-5" />
    </linearGradient>
    <linearGradient
       gradientTransform="translate(-2177.3438,-790.54648)"
       y2="780.93359"
       x2="2600"
       y1="1200.9336"
       x1="2605.7144"
       gradientUnits="userSpaceOnUse"
       id="linearGradient3589"
       xlink:href="#linearGradient3371-9-8"
       inkscape:collect="always" />
    <linearGradient
       inkscape:collect="always"
       id="linearGradient3635-5">
      <stop
         style="stop-color:#ff9955;stop-opacity:1"
         offset="0"
         id="stop3637-3" />
      <stop
         style="stop-color:#ffff00;stop-opacity:1"
         offset="1"
         id="stop3639-8" />
    </linearGradient>
    <linearGradient
       gradientTransform="translate(-1162.2991,-744.99107)"
       y2="723.79077"
       x2="1597.1428"
       y1="1566.6478"
       x1="1594.2858"
       gradientUnits="userSpaceOnUse"
       id="linearGradient3658"
       xlink:href="#linearGradient3635-5"
       inkscape:collect="always" />
    <mask
       maskUnits="userSpaceOnUse"
       id="mask3143">
      <path
         style="fill:#ececec;stroke:#000000;stroke-width:1px;stroke-linecap:butt;stroke-linejoin:miter;stroke-opacity:1"
         d="m 286.88332,1185.7023 957.62458,0 -8.0812,347.4925 c 0,0 -161.6244,121.2183 -379.81734,125.2589 -218.19295,4.0406 -606.09153,-105.0559 -606.09153,-105.0559 z"
         id="path3145"
         inkscape:connector-curvature="0" />
    </mask>
    <linearGradient
       inkscape:collect="always"
       xlink:href="#linearGradient3154"
       id="linearGradient3160"
       x1="646.49768"
       y1="1201.8647"
       x2="650.53827"
       y2="1929.1746"
       gradientUnits="userSpaceOnUse" />
    <linearGradient
       inkscape:collect="always"
       xlink:href="#linearGradient3028"
       id="linearGradient4255"
       gradientUnits="userSpaceOnUse"
       gradientTransform="translate(-140,-920)"
       x1="1642.8572"
       y1="1195.2194"
       x2="1642.8572"
       y2="649.50507" />
    <linearGradient
       inkscape:collect="always"
       xlink:href="#linearGradient3371"
       id="linearGradient4273"
       gradientUnits="userSpaceOnUse"
       x1="1668.5714"
       y1="1120.9336"
       x2="1951.4286"
       y2="1132.3622" />
  </defs>
  <sodipodi:namedview
     id="base"
     pagecolor="#ffffff"
     bordercolor="#666666"
     borderopacity="1.0"
     inkscape:pageopacity="0.0"
     inkscape:pageshadow="2"
     inkscape:zoom="0.49497475"
     inkscape:cx="476.46535"
     inkscape:cy="875.95442"
     inkscape:document-units="px"
     inkscape:current-layer="layer1"
     showgrid="false"
     inkscape:window-width="1366"
     inkscape:window-height="714"
     inkscape:window-x="0"
     inkscape:window-y="25"
     inkscape:window-maximized="1" />
  <metadata
     id="metadata7">
    <rdf:RDF>
      <cc:Work
         rdf:about="">
        <dc:format>image/svg+xml</dc:format>
        <dc:type
           rdf:resource="http://purl.org/dc/dcmitype/StillImage" />
        <dc:title></dc:title>
      </cc:Work>
    </rdf:RDF>
  </metadata>
  <g
     inkscape:label="Layer 1"
     inkscape:groupmode="layer"
     id="layer1">
    <path
       style="fill:url(#linearGradient4255);fill-opacity:1"
       d="m 1257.4062,-91.531238 9.4688,9.4375 18,25.3125 c 18.855,23.22216 5.0243,10.73095 29.3438,37.125 3.1621,3.4428 6.7018,7.51757 7.875,9.0625 4.2166,5.5523496 14.9367,17.2076296 15.9687,17.3749996 2.5446,0.41265 15.1868,13.3552304 14.9063,15.2500004 -0.1711,1.15439 0.5068,1.77367 1.4687,1.375 0.9621,-0.39856 6.8622,5.23894 13.1563,12.5 8.6898,10.02508 12.154,15.5232 14.375,22.84375 1.6085,5.302 2.7676,10.64165 2.5624,11.90625 -0.2052,1.2647 0.2192,5.57907 0.9376,9.56255 0.7181,3.98314 0.7968,7.55194 0.2187,7.96874 -0.578,0.4165 -6.5872,0.1182 -13.4063,-0.6875 -6.819,-0.8052 -13.85,-1.6195 -15.625,-1.8125 -1.775,-0.1924 -6.0509,1.0974 -9.5,2.875 -3.4492,1.7776 -6.6209,3.1868 -7.0624,3.125 -3.2004,-0.4501 -9.6881,5.2615 -16.5313,14.593698 -4.4267,6.037 -8.4853,11.267 -9.0625,11.625 -0.5772,0.3578 -2.6716,3.4661 -4.6562,6.875 -4.0944,7.033 -5.2921,16.793 -3.125,25.8438 1.8377,7.6754 17.5645,28.9333 24.75,33.4688 6.0854,3.8409 21.314,5.5407 34.375,3.8124 7.0603,-0.9344 8.0408,-0.7114 12.5312,3.125 4.9798,4.2545 10.8761,12.649 10.5,14.9688 -0.1158,0.7118 0.5631,0.9636 1.5312,0.5625 0.9683,-0.4013 1.6283,0.078 1.4688,1.0625 -0.1596,0.9839 0.5484,1.4642 1.5938,1.0312 1.0455,-0.4332 2.7087,0.8188 3.6874,2.8438 1.0334,2.1381 2.8954,3.4962 4.375,3.1875 1.4977,-0.3125 3.8623,1.488 5.7813,4.375 1.7955,2.7011 3.3951,4.0643 3.5625,3.0313 0.225,-1.3875 0.8721,-1.2577 2.4062,0.5 1.5926,1.8259 2.6608,2.0621 4.625,0.9062 1.4743,-0.8677 2.8329,-0.8383 3.2188,0.094 0.6848,1.6525 7.8233,4.9945 14.4062,6.7187 3.0077,0.7878 3.6334,0.2772 3.375,-2.5937 l -0.3437,-3.5 2.1875,3.9062 c 1.59,2.8233 3.1139,3.6795 5.5938,3.1562 2.2212,-0.4689 4.2437,0.2857 5.8124,2.1876 1.9814,2.4015 2.4655,2.5034 2.8126,0.6562 0.232,-1.2312 1.1619,-0.2789 2.0624,2.125 0.9912,2.645 1.8086,3.4444 2.0938,2 0.4169,-2.1217 0.6236,-2.1068 1.6562,0.25 0.8443,1.9267 1.2355,2.0815 1.5,0.5625 0.2027,-1.1494 1.0209,-1.5302 1.8126,-0.8437 0.7917,0.6865 1.5814,0.4141 1.75,-0.625 0.2284,-1.4086 0.8272,-1.3047 2.375,0.4687 1.6742,1.9194 2.1744,1.9833 2.5,0.2187 0.2804,-1.5166 0.765,-1.2617 1.5624,0.8126 0.6328,1.6454 2.1549,2.7675 3.4376,2.5 1.2826,-0.2676 2.7214,0.3866 3.1562,1.4374 0.4352,1.0499 1.4599,1.6034 2.3125,1.25 0.8527,-0.3532 2.0956,0.9712 2.7813,2.9688 0.6857,1.9976 2.1785,3.4647 3.2812,3.25 1.1027,-0.2149 4.0447,1.3376 6.5625,3.4688 2.8343,2.3987 5.0967,3.3351 5.875,2.4374 1.2573,-1.4499 11.9508,3.8921 15.625,7.8126 1.1406,1.2167 1.8262,1.3221 2,0.25 0.1473,-0.9055 1.6973,-1.0026 3.4687,-0.2188 1.8017,0.7971 3.9519,0.6292 4.8438,-0.4062 1.1423,-1.3174 1.7528,-0.7954 2.1562,1.9374 0.4396,2.9771 0.9185,3.4225 2.3126,1.875 1.13,-1.2547 2.154,-1.3557 2.75,-0.2187 1.1561,2.2062 16.1747,5.0937 15.2812,2.9375 -0.3522,-0.85 2.2666,-0.7575 5.8125,0.1875 3.5456,0.945 6.5578,1.0499 6.6875,0.25 0.1296,-0.8 0.8569,-0.9518 1.5938,-0.3125 0.7371,0.639 1.894,0.4372 2.625,-0.4062 0.9245,-1.0662 1.954,-0.8076 3.3124,0.75 1.5203,1.7425 2.0164,1.7365 2.3126,0.031 0.2996,-1.7216 0.6499,-1.6451 1.5624,0.4375 0.9771,2.2302 1.227,2.1725 1.6563,-0.3437 0.4084,-2.3934 0.9057,-2.5106 2.4687,-0.7188 1.4022,1.6073 2.3604,1.7903 3.3438,0.6562 0.9741,-1.1238 1.9414,-0.8984 3.4062,0.7813 1.6506,1.8923 2.4427,1.9337 3.9063,0.2813 1.5667,-1.7682 1.761,-1.721 1.4687,0.3437 -0.2826,1.9923 -0.014,2.0746 1.4376,0.4375 0.9646,-1.0883 2.4416,-1.3492 3.3124,-0.5938 0.9637,0.8357 1.3996,0.4351 1.0938,-1.0312 -0.3525,-1.6923 0.5665,-2.1781 3.125,-1.5625 3.9803,0.9577 8.3969,-0.629 7.5312,-2.7187 -0.2992,-0.7225 1.2383,-0.8106 3.375,-0.2188 2.9058,0.8046 4.0096,0.2821 4.375,-1.9688 0.333,-2.0533 1.2041,-2.5743 2.7813,-1.6562 1.4485,0.843 2.263,0.5649 2.1875,-0.8125 -0.067,-1.2095 0.6446,-2.1129 1.5938,-2 2.1384,0.2545 7.8975,-3.7721 8.2187,-5.75 0.3078,-1.8976 9.0941,-4.5398 11.875,-3.5625 1.2028,0.4226 2.0045,-0.2161 1.7813,-1.4688 -0.4876,-2.7463 4.9634,-6.7649 7.4374,-5.4687 0.9884,0.5178 1.9617,-0.052 2.1563,-1.25 0.4335,-2.673 7.3451,-7.0992 8.9375,-5.7187 1.2688,1.0999 6.6089,-2.1613 11.0625,-6.8126 2.2069,-2.3039 3.2899,-2.5171 4.75,-0.8437 1.0375,1.1896 1.8669,1.4901 1.8437,0.6563 -0.098,-3.6278 1.1227,-5.5447 2.6876,-4.1876 1.1537,1.0003 1.4937,0.5043 1.0624,-1.5624 -0.4675,-2.2424 -0.091,-2.6685 1.5938,-1.6876 1.4132,0.8228 2.4718,0.366 2.7188,-1.1562 0.218,-1.3442 1.0517,-1.8742 1.8437,-1.1875 0.8209,0.7121 1.7627,-0.6663 2.25,-3.2187 0.4699,-2.4607 1.1345,-3.4638 1.4063,-2.25 0.3405,1.5163 2.1539,0.922 5.9374,-1.9376 3.0276,-2.2898 6.147,-3.6584 6.9063,-3 0.7594,0.6585 1.5491,0.3572 1.7187,-0.6874 0.1688,-1.0442 3.2129,-5.9326 6.75,-10.9063 5.3081,-7.4628 6.953,-11.5515 9.4688,-23.3125 1.6756,-7.8382 4.2027,-17.0608 5.6562,-20.4375 3.3418,-7.7566 3.743,-9.8895 1.2813,-7.1563 -1.3525,1.4977 -1.3844,-0.3873 -0.094,-6.1874 1.0182,-4.5762 1.3036,-8.4212 0.625,-8.5313 -3.0448,-0.4938 4.1747,-9.2145 10.625,-12.875 3.9247,-2.2268 7.2968,-5.2435 7.5312,-6.6875 0.6743,-4.1575 -4.785,-14.314198 -7.9688,-14.843798 -1.5895,-0.2677 -2.4448,-1.0309 -1.875,-1.6874 1.2269,-1.4154 -3.6341,-2.044 -6.5312,-0.8438 -1.1098,0.4602 -2.1516,-0.1159 -2.3438,-1.2812 -0.2762,-1.664 -1.0255,-1.7491 -3.375,-0.375 -1.6461,0.9629 -3.9969,1.1487 -5.2187,0.4374 -1.2219,-0.7111 -2.7308,-0.6755 -3.3437,0.031 -0.6133,0.7067 -2.4615,0.9624 -4.125,0.5625 -2.4321,-0.5848 -3.0277,-2.7554 -3.125,-11.125 -0.067,-5.72507 0.069,-13.74784 0.3124,-17.81254 0.2437,-4.06464 0,-11.30171 -0.5624,-16.0625 -1.0488,-8.85293 1.6014,-27.11887 3.9062,-26.75 0.7037,0.1141 0.8543,-1.0577 0.2812,-2.625 -0.579,-1.592 -0.085,-5.31931 1.1563,-8.4375 1.2226,-3.0686204 2.9585,-9.7371104 3.875,-14.7812504 0.9163,-5.04418 1.8986,-10.0328496 2.125,-11.1249996 1.1962,-5.75561 0.9962,-22.33206 -0.3437,-27.5625 -0.8451,-3.29785 -1.6051,-6.38896 -1.625,-6.84375 -0.038,-0.86238 -4.276,-8.0162 -9.5938,-16.1875 -1.7079,-2.62355 -4.6491,-8.00905 -6.5625,-12.03125 l -23.6718,-40.173712 c -9.3789,-12.03505 -25.9493,-24.66792 -38.1095,-14.54504 -8.1003,-6.59054 9.9756,64.68188 8.3191,56.727492 -2.3554,-11.309961 -23.0962,-64.602122 -41.7285,-54.436882 9.9441,1.37639 -12.8439,-2.40957 -13.6843,-1.72811 l -1.0379,26.10279 c 1.8924,-0.13527 -2.0444,14.546902 -1.0871,14.678412 0.5238,0.0718 0.8661,0.17425 0.9687,0.34375 1.1922,1.96819 10.8395,50.35944 11.25,56.4375 0.3295,4.87587 -1.7056,21.31095 -5,40.9062496 -3.0293,18.0220404 -5.5676,37.9215804 -5.7187,44.2187504 -0.7211,30.0721 -1.2672,47.929788 -1.625,53.093688 -0.2822,4.0743 -1.1203,5.6948 -2.9375,5.75 -1.6939,0.052 -2.4161,-1.3645 -2.1875,-4.2812 0.1868,-2.3898 -0.2365,-5.3087 -0.9375,-6.5 -0.7018,-1.191298 -0.86,-2.493998 -0.375,-2.843798 0.4851,-0.3495 0.5022,-3.2337 0.062,-6.4062 -0.4408,-3.1724 -0.7878,-8.34539 -0.75,-11.49999 0.038,-3.1546 -0.8146,-7.1696 -1.9375,-8.9375 -1.1238,-1.7683 -1.4916,-3.60415 -0.8125,-4.09375 0.6792,-0.4895 0.4471,-2.71101 -0.5313,-4.90625 -0.9857,-2.21156 -1.0868,-4.06916 -0.1874,-4.21875 0.9182,-0.15276 0.8826,-2.47565 -0.063,-5.34375 -1.221,-3.70634 -1.1019,-5.29429 0.375,-5.90625 1.4067,-0.58285 1.1544,-2.66315 -0.875,-6.84375 -1.6023,-3.30186 -3.4134,-6.31568 -4.0312,-6.71875 -0.6175,-0.40312 -0.6446,-1.35478 -0.031,-2.0625 0.6135,-0.70784 0.672,-2.651 0.094,-4.34375 -0.578,-1.69283 -1.0483,-4.93765 -1,-7.1875 0.048,-2.24998 -1.0308,-7.52279 -2.375,-11.6875004 -1.3442,-4.16472 -1.9477,-8.14716001 -1.3437,-8.84375 0.604,-0.69662 0.2754,-1.3962 -0.75,-1.5625 -1.0258,-0.16636 -1.3372,-1.23677 -0.6563,-2.40625 0.6808,-1.1695 0.2399,-2.69744 -1.0313,-3.4375 -1.2985,-0.75593 -1.7319,-2.3365196 -1,-3.5937496 0.8044,-1.38174 0.3542,-2.41131 -1.1562,-2.65625 -1.3449,-0.21811 -1.874,-1.05198 -1.1875,-1.84375 0.6865,-0.79176 0.3701,-1.58357 -0.6563,-1.75 -1.0262,-0.16642 -1.2517,-1.32471 -0.5312,-2.5625 0.7207,-1.23778 0.6334,-2.33056 -0.2188,-2.46875 -0.8522,-0.13819 -1.3473,-1.5609 -1.0937,-3.125 0.2537,-1.56411 -0.4161,-4.60343 -1.4687,-6.78125 -1.9022,-9.47485 -5.0383,-21.37405 -3.4376,-31.96875 9.3246,-43.547082 2.6832,-44.244762 2.3438,-56.781252 -0.1159,0.71502 -1.3293,0.42184 -2.6875,-0.65625 -1.5735,-1.24926 -4.0452,-1.59279 -6.8125,-1 -2.3881,0.5116 -6.3401,0.73326 -8.75,0.53125 -2.4101,-0.20199 -5.9471,0.69978 -7.9062,1.96875 -2.4734,1.60208 -3.6787,1.68332 -3.9063,0.28125 -0.4828,-2.97324 -7.5608,0.31794 -10.5937,4.9375 -1.3807,2.10325 -3.6007,3.37605 -8.5626,4.46875 5.0182,22.445984 -1.118,33.562578 2.75,47.562502 1.4251,5.1851 2.5478,14.50568 2.5313,20.71875 -0.023,8.87185 -1.1156,14.82348 -5.0937,27.71875 -3.9665,12.8573296 -4.8031,14.6635396 -3.9376,8.3749996 0.3051,-2.21811 0.4652,-3.9055896 0.3438,-5.5312496 l -2.8438,17.4062496 0.2188,-0.75 -0.4375,2.15625 -0.8437,5.1875004 -0.25,-0.0312 -1.125,5.40625 c -1.4699,6.98634 -4.0019,16.33334 -5.625,20.78125 -2.017,5.52755 -3.1341,12.63984 -3.5,22.4375 -0.2951,7.88446 -2.1745,21.8075 -4.1563,30.96874 -3.7296,17.238898 -9.0496,30.545798 -7.25,18.124998 0.4798,-3.3088 0.185,-6.1185 -0.625,-6.25 -0.8099,-0.131 -1.5346,-2.664998 -1.6875,-5.624998 -0.1526,-2.9598 -1.4917,-8.5231 -2.9688,-12.375 -1.477,-3.85194 -2.7358,-7.75074 -2.75,-8.65624 -0.2077,-12.85848 -11.3848,-40.68373 -18.0624,-44.96875 -4.2636,-2.7359 -12.2025,-10.5324 -12,-11.78125 0.1282,-0.79306 -0.7399,-1.62333 -1.9063,-1.8125 -2.5745,-0.41749 -7.9903,-8.1118604 -7.5625,-10.7500004 0.1692,-1.04323 -0.2236,-1.87636 -0.9062,-1.84375 -4.7718,-3.07773 -11.8713,-12.05729 -15.75,-17.4374996 7.507,-10.77373 9.9031,-7.95732 -2.5,-9.96875 l 2.9687,-18.25 c -1.324,0.69339 -2.797,1.13204 -4.4063,1.15625 -0.9021,-0.1463 -1.3819,1.19658 -1.125,2.9375 0.2998,2.03103 -0.5128,3.32509 -2.25,3.6875 -1.4899,0.31049 -2.359,1.38886 -1.9374,2.40625 0.4214,1.01742 -0.2915,2.7974 -1.5626,3.90625 -2.6778,2.33588 -5.0388,2.13688 -8.0624,-0.59375 -1.1816,-1.06704 -3.7091,-2.18119 -5.5938,-2.5 -1.8849,-0.31834 -5.3522,-3.12064 -7.75,-6.21875 -2.3979,-3.09814 -5.7707,-5.88595 -7.4375,-6.15625 -1.6668,-0.27031 -2.8235,-1.46296 -2.625,-2.6875 0.1986,-1.22453 -1.3896,-2.9661 -3.5,-3.875 -2.1103,-0.9089 -3.7008,-2.36597 -3.5625,-3.21875 0.1385,-0.8528 -2.5715,-2.42887 -6,-3.5625 -3.4286,-1.13364 -6.129,-2.5855 -6.0312,-3.1875 1.4096,-3.81983 2.5953,-7.3924 3.6874,-10.84375 l -3.8437,-0.625 c -0.139,0.15755 -0.2891,0.30801 -0.4687,0.4375 -3.6815,2.6541 -7.9383,4.56437 -9.4376,4.25 -1.6563,-0.34743 -1.8884,-0.76923 -0.5937,-1.0625 3.4184,-0.77431 2.9056,-3.37085 -0.7813,-3.96875 -3.413,-0.55349 -14.8081,-8.76192 -14.5312,-10.46875 -32.8578,-36.930332 -67.9857,-32.476842 -72.9681,-10.15595 z m 272.2813,-26.218802 c 0.1543,0.021 0.1965,0.14169 0.125,0.46875 -0.6581,3.00356 -4.1305,7.67408 -3.8125,5.125 0.1662,-1.32765 1.1517,-3.38091 2.2188,-4.5625 0.6669,-0.7385 1.2117,-1.06611 1.4687,-1.03125 z M 1358.375,107.43745 c 0.267,-0.011 0.4211,0.1489 0.375,0.5 -0.3063,2.3259 16.3577,3.8928 25.8125,2.4063 4.3269,-0.6803 8.2144,-0.8661 10.5313,-0.6563 2.3168,0.2099 3.0419,0.8028 0.9687,1.6875 -1.409,0.601 -3.0949,0.6307 -3.75,0.062 -1.7699,-1.5349 -17.0518,4.7835 -16.25,6.7187 0.3786,0.9138 -0.3308,1.4861 -1.5937,1.2813 -1.2644,-0.205 -3.3583,0.5513 -4.625,1.6563 -1.2666,1.1049 -5.7344,1.9531 -9.9376,1.875 -8.4872,-0.1579 -14.7355,3.0672 -17.25,8.9062 -1.1748,2.7275 -0.9391,4.6284 0.8438,6.5 3.968,4.1651 6.8905,3.8813 17.2812,-1.5312 9.2689,-4.8283 16.6268,-6.7419 18.0626,-4.75 0.3666,0.5087 0.7038,2.9189 0.75,5.4062 0.066,3.523 -0.4135,4.2645 -2.1563,3.25 -1.5916,-0.9266 -2.0633,-0.5445 -1.6563,1.4062 0.414,1.9862 0.023,2.2742 -1.375,1.0626 -1.4281,-1.2383 -1.8025,-0.8866 -1.3437,1.3124 0.3847,1.8445 0.026,2.6451 -1.0313,2.0938 -2.7798,-1.4563 -12.4247,5.8831 -11.7812,8.9688 0.4337,2.0789 -0.064,2.3377 -2.0938,1.1562 -1.8245,-1.0621 -2.397,-0.8795 -1.8124,0.5312 0.5171,1.2482 -0.1498,1.8795 -1.7188,1.625 -1.4239,-0.2308 -2.2449,0.3757 -1.8438,1.3438 0.4013,0.9681 -0.1713,1.6124 -1.25,1.4375 -1.0787,-0.1749 -1.5832,0.2585 -1.0937,0.9375 0.4894,0.6789 -2.0836,3.1065 -5.75,5.4375 -4.4062,2.8011 -6.4992,5.1754 -6.125,6.9687 0.703,3.3705 -0.047,3.3307 -2.0625,-0.094 -1.7879,-3.0381 4.6666,-11.8227 17.1562,-23.375 4.0545,-3.7503 7.6083,-8.1676 7.875,-9.8125 0.6363,-3.9245 -0.079,-3.8745 -5.8437,0.2812 -4.8232,3.4773 -10.6276,3.0879 -17.125,-1.125 -1.5874,-1.0292 -3.2235,-0.3435 -5.1563,2.1876 -1.5547,2.0358 -3.0879,3.2973 -3.4374,2.8124 -0.3497,-0.4851 0.3301,-1.7368 1.5624,-2.8124 2.6011,-2.2688 3.2653,-15.7738 0.7188,-14.7188 -2.17,0.899 1.2336,-7.2331 4.6875,-11.1875 1.5021,-1.72 4.1789,-3.3295 5.9687,-3.5937 1.7896,-0.2644 3.8371,-1.4641 4.5313,-2.6563 0.7301,-1.2543 2.2484,-1.6138 3.625,-0.8125 1.4068,0.8189 3.4938,0.3056 5.125,-1.25 0.9482,-0.9047 1.7424,-1.4194 2.1875,-1.4375 z m -7.375,22.3125 c 1.6477,0 3,1.4628 3,3.25 0,1.7872 -1.3523,3.2188 -3,3.2188 -1.6477,0 -2.9688,-1.4316 -2.9688,-3.2188 0,-1.7872 1.3211,-3.25 2.9688,-3.25 z m -31.4375,8.8438 c 0.5023,0.037 0.6717,0.5653 0.8437,1.625 0.2218,1.365 2.1694,4.6208 4.3126,7.2187 3.5245,4.2723 5.2064,8.8843 2.3124,6.375 -0.6506,-0.5643 -3.2283,-0.3815 -5.7187,0.4375 -3.3384,1.0982 -4.2537,1.0043 -3.4687,-0.3438 0.5853,-1.0055 -0.1907,-3.4013 -1.7188,-5.3124 -3.3729,-4.2184 -3.2524,-5.717 0.7812,-8.625 1.3251,-0.9554 2.1536,-1.4101 2.6563,-1.375 z m 3.6875,19.2812 c 1.4849,0 2.6875,1.2585 2.6875,2.8125 0,1.554 -1.2026,2.8125 -2.6875,2.8125 -1.4849,0 -2.6875,-1.2585 -2.6875,-2.8125 0,-1.554 1.2026,-2.8125 2.6875,-2.8125 z"
       id="path4591"
       inkscape:connector-curvature="0"
       sodipodi:nodetypes="cccccccccccccccccccssccscccccccccccsccccccccccscccccccscccccccccccccccccccccccccccscccccccccccccccccccccccscccccccccccccccccccccccccccccccscccccccccccccccccsccccccccscsccsssccscccccccscccccsccccccccccccccccscccccccccccccccscccscccccsscccccccccscccscsccccccccccccccccsccccsscccccscccscccsssssccsccccccsssss" />
    <path
       inkscape:connector-curvature="0"
       id="path3724"
       d="m 266.07694,34.31694 c -2.28353,0.0075 -3.7166,1.044988 -2.94408,3.619714 l 0.25885,0.794138 c -3.75582,4.125652 -3.24039,4.1308 0.65378,3.812761 l 1.32943,1.325034 2.52719,3.553885 c 2.64727,3.260395 0.70544,1.506625 4.11989,5.212395 0.44401,0.483366 0.94091,1.055459 1.10563,1.27238 0.59204,0.779552 2.0972,2.415941 2.24206,2.439464 0.35723,0.05791 2.13225,1.875073 2.09286,2.141092 -0.0242,0.162082 0.0709,0.249031 0.2062,0.193065 0.13509,-0.05599 0.96344,0.735535 1.84711,1.755013 1.22012,1.407519 1.70644,2.17946 2.01827,3.207266 0.22588,0.744397 0.3886,1.494101 0.35981,1.671661 -0.0284,0.177561 0.0309,0.78329 0.13159,1.342566 0.10088,0.559242 0.1119,1.060308 0.0309,1.118819 -0.0809,0.05849 -0.92481,0.01669 -1.88225,-0.09652 -0.95735,-0.113067 -1.9445,-0.227369 -2.19374,-0.254471 -0.24925,-0.02704 -0.84955,0.154071 -1.33378,0.403644 -0.48431,0.249589 -0.92956,0.447427 -0.99156,0.438766 -0.44935,-0.06325 -1.36022,0.738705 -2.321,2.048953 -0.62157,0.8476 -1.19133,1.581908 -1.27244,1.632167 -0.0809,0.05023 -0.37508,0.486646 -0.6537,0.965256 -0.57485,0.987419 -0.74299,2.357747 -0.43875,3.628484 0.25801,1.077639 2.46602,4.062251 3.47495,4.699038 0.85438,0.539283 2.99247,0.777925 4.82624,0.535269 0.99123,-0.131199 1.12891,-0.09988 1.75942,0.438732 0.69909,0.597354 1.52702,1.775944 1.4742,2.101651 -0.0159,0.09994 0.0793,0.135297 0.21496,0.07894 0.13593,-0.05633 0.22863,0.01076 0.20619,0.149189 -0.0225,0.138142 0.0768,0.205581 0.22379,0.144767 0.14678,-0.06083 0.38034,0.114986 0.51769,0.399272 0.14511,0.300215 0.40654,0.490893 0.61432,0.447536 0.21019,-0.04389 0.54222,0.208927 0.81166,0.614257 0.25208,0.379237 0.47671,0.570624 0.50016,0.42559 0.0317,-0.194817 0.12241,-0.176584 0.33787,0.07018 0.22363,0.256365 0.37358,0.289509 0.64936,0.127235 0.20694,-0.121837 0.39769,-0.117698 0.45193,0.01318 0.0961,0.232 1.09838,0.70124 2.0226,0.943311 0.42231,0.110613 0.5101,0.03889 0.4738,-0.364159 l -0.0484,-0.491402 0.30716,0.548428 c 0.22321,0.396385 0.43716,0.516603 0.78537,0.443147 0.31183,-0.06584 0.59579,0.04005 0.81609,0.307124 0.2782,0.337164 0.34612,0.351475 0.39485,0.09215 0.0325,-0.172855 0.16314,-0.03914 0.28955,0.298346 0.13919,0.371351 0.25392,0.483608 0.29398,0.280814 0.0584,-0.297904 0.0875,-0.295801 0.23256,0.03505 0.11849,0.270509 0.17348,0.292254 0.21061,0.07902 0.0284,-0.161381 0.14327,-0.214835 0.2545,-0.118465 0.11115,0.09639 0.22197,0.05816 0.24566,-0.08775 0.0325,-0.197763 0.11616,-0.183177 0.33345,0.06584 0.23506,0.269483 0.30532,0.27847 0.35105,0.03071 0.0392,-0.212933 0.10739,-0.177152 0.21929,0.114084 0.0889,0.231015 0.30256,0.388558 0.48272,0.351 0.18007,-0.03755 0.38209,0.05424 0.44309,0.201809 0.0609,0.147396 0.20494,0.225116 0.32468,0.175508 0.11974,-0.04957 0.29422,0.13634 0.39052,0.41682 0.0963,0.280464 0.30582,0.486446 0.46069,0.456306 0.15479,-0.03021 0.56784,0.187783 0.92131,0.487005 0.39803,0.336797 0.71562,0.468255 0.82484,0.342229 0.17657,-0.203562 1.67798,0.546459 2.19383,1.096898 0.16013,0.170819 0.25634,0.18563 0.28079,0.03505 0.0209,-0.127136 0.23832,-0.140771 0.48698,-0.03071 0.25301,0.111915 0.55491,0.08834 0.68007,-0.05699 0.16038,-0.184987 0.24616,-0.11169 0.30274,0.271994 0.0618,0.418014 0.12892,0.48053 0.32468,0.263258 0.15871,-0.176167 0.30248,-0.190328 0.38609,-0.03071 0.16239,0.309744 2.27094,0.715132 2.14552,0.412414 -0.0492,-0.119342 0.31826,-0.106366 0.81608,0.02628 0.49783,0.132684 0.92073,0.147412 0.93892,0.03513 0.0184,-0.112333 0.12032,-0.133653 0.22379,-0.04389 0.10347,0.08974 0.26594,0.06141 0.36858,-0.05699 0.12975,-0.149699 0.27428,-0.113392 0.46503,0.105306 0.21345,0.244633 0.28313,0.243807 0.32468,0.0042 0.0417,-0.241695 0.0913,-0.230973 0.21938,0.06141 0.13718,0.313116 0.17231,0.305022 0.23255,-0.04831 0.0576,-0.336004 0.12717,-0.352476 0.34663,-0.100892 0.19685,0.225674 0.33136,0.251367 0.46946,0.09213 0.13676,-0.157793 0.27253,-0.126135 0.47822,0.109695 0.23172,0.265678 0.34295,0.271494 0.54847,0.03947 0.21996,-0.248271 0.24725,-0.241629 0.20619,0.04823 -0.0401,0.279738 0,0.291303 0.20186,0.06141 0.13543,-0.152795 0.34278,-0.189435 0.46503,-0.08336 0.13535,0.117339 0.19651,0.06108 0.15354,-0.144767 -0.0492,-0.237616 0.0793,-0.305806 0.43875,-0.219391 0.55882,0.134478 1.17898,-0.0883 1.0574,-0.38169 -0.0417,-0.10146 0.1739,-0.11381 0.47388,-0.03071 0.40796,0.11295 0.56291,0.03964 0.61423,-0.276442 0.0467,-0.288274 0.16906,-0.361405 0.39052,-0.232534 0.20335,0.118374 0.31767,0.07936 0.30708,-0.114051 -0.009,-0.169834 0.0905,-0.29666 0.22379,-0.280806 0.30023,0.03571 1.10881,-0.529603 1.15395,-0.807322 0.0434,-0.266403 1.27678,-0.637388 1.66721,-0.500164 0.1689,0.05933 0.28146,-0.03037 0.25009,-0.206215 -0.0684,-0.385587 0.69692,-0.949794 1.04422,-0.767828 0.13876,0.07268 0.27544,-0.0075 0.30281,-0.175491 0.0609,-0.375282 1.03121,-0.996732 1.25484,-0.802899 0.17807,0.154421 0.9279,-0.303453 1.55314,-0.956487 0.30983,-0.323479 0.46187,-0.353419 0.66689,-0.118482 0.14569,0.167047 0.2621,0.209219 0.25884,0.09215 -0.0134,-0.509343 0.15763,-0.778475 0.37734,-0.587947 0.16196,0.140461 0.20977,0.07084 0.14919,-0.219333 -0.0659,-0.314851 -0.0125,-0.374681 0.2238,-0.236948 0.19835,0.11552 0.34704,0.0514 0.38167,-0.162332 0.0309,-0.188717 0.1477,-0.263149 0.25885,-0.166721 0.11532,0.09998 0.24749,-0.09356 0.31592,-0.451925 0.0659,-0.345476 0.15929,-0.486296 0.19743,-0.315895 0.0476,0.212891 0.30248,0.129464 0.8336,-0.272044 0.42515,-0.321477 0.86306,-0.51364 0.96971,-0.421201 0.10664,0.09246 0.21745,0.05015 0.24132,-0.0965 0.0234,-0.146611 0.4511,-0.832939 0.94767,-1.531249 0.74524,-1.047777 0.97622,-1.621848 1.32943,-3.273098 0.23523,-1.100486 0.59004,-2.395338 0.79414,-2.869451 0.46921,-1.089021 0.52553,-1.388485 0.17991,-1.004726 -0.18992,0.210263 -0.19443,-0.05441 -0.0134,-0.868736 0.14294,-0.642495 0.18299,-1.182345 0.0878,-1.19779 -0.42748,-0.06934 0.58611,-1.293718 1.49173,-1.807667 0.55098,-0.31264 1.02444,-0.736186 1.0574,-0.938921 0.0946,-0.583717 -0.6718,-2.009735 -1.11881,-2.084092 -0.22322,-0.03755 -0.34329,-0.144726 -0.26327,-0.23689 0.17223,-0.19873 -0.51026,-0.286981 -0.91697,-0.118499 -0.15587,0.06459 -0.30215,-0.0161 -0.3291,-0.17988 -0.0384,-0.23361 -0.14394,-0.245543 -0.47388,-0.05265 -0.23106,0.135196 -0.56116,0.161289 -0.73264,0.06141 -0.17156,-0.09983 -0.38343,-0.09482 -0.46946,0.0042 -0.0862,0.09922 -0.34562,0.135138 -0.57918,0.07902 -0.34146,-0.08211 -0.42515,-0.386872 -0.43875,-1.561965 -0.009,-0.8038 0.01,-1.930212 0.0442,-2.500912 0.0342,-0.570666 0,-1.586739 -0.0793,-2.255168 -0.1472,-1.242959 0.22488,-3.807505 0.54848,-3.75572 0.0988,0.01594 0.1199,-0.148514 0.0392,-0.368564 -0.0809,-0.223513 -0.0117,-0.746825 0.16229,-1.184606 0.17174,-0.430864 0.41539,-1.367115 0.54406,-2.075313 0.12867,-0.708216 0.26661,-1.408612 0.2984,-1.561957 0.16789,-0.80809 0.13985,-3.135454 -0.0484,-3.869804 -0.11866,-0.463015 -0.22538,-0.897025 -0.22822,-0.960859 -0.008,-0.121103 -0.6003,-1.125503 -1.34696,-2.272742 -0.23981,-0.368348 -0.65278,-1.124468 -0.92139,-1.689193 l -0.48698,-1.03106 c -1.81532,-3.125349 -3.27651,-4.362801 -5.89682,-6.603217 -0.54339,0.694656 -1.39986,0.676223 -2.29029,-0.04831 -1.13735,-0.925303 -2.59019,-1.44148 -3.72503,-1.325034 -1.11073,0.114002 -2.60446,0.715834 -2.66763,1.079342 -0.0225,0.122329 -0.10138,0.229004 -0.21937,0.324681 l -0.92573,5.721345 c 0.26568,-0.01894 0.49298,-0.0141 0.62741,0.0042 0.0734,0.0101 0.12158,0.02445 0.13602,0.04823 0.16739,0.27635 1.52185,7.07052 1.57951,7.923878 0.0459,0.684575 -0.23948,2.992063 -0.70201,5.743266 -0.42532,2.530309 -0.78171,5.324226 -0.8029,6.208333 -0.1013,4.222155 -0.17791,6.729401 -0.22822,7.454421 -0.0392,0.572018 -0.1573,0.799553 -0.41238,0.80728 -0.23782,0.0075 -0.3392,-0.191562 -0.30716,-0.601081 0.0259,-0.335537 -0.0334,-0.745331 -0.13159,-0.912586 -0.0985,-0.167272 -0.12075,-0.350174 -0.0526,-0.399272 0.0684,-0.04906 0.0701,-0.45402 0.008,-0.899444 -0.0617,-0.445417 -0.11057,-1.171714 -0.10531,-1.614619 0.008,-0.442904 -0.1144,-1.006611 -0.27203,-1.254832 -0.15779,-0.248255 -0.20944,-0.506022 -0.11407,-0.574763 0.0954,-0.06867 0.0626,-0.380622 -0.0743,-0.688831 -0.13843,-0.310521 -0.15262,-0.571325 -0.0267,-0.592337 0.12892,-0.02144 0.12392,-0.347569 -0.009,-0.750254 -0.17139,-0.520374 -0.1547,-0.743312 0.0526,-0.829234 0.19752,-0.08186 0.16214,-0.373913 -0.12283,-0.960868 -0.22496,-0.463582 -0.47922,-0.886727 -0.566,-0.943327 -0.0867,-0.05657 -0.0904,-0.190219 -0.008,-0.289576 0.0862,-0.09938 0.0944,-0.372211 0.0134,-0.609851 -0.0809,-0.237674 -0.14711,-0.693262 -0.14035,-1.00914 0.008,-0.315911 -0.14469,-1.056194 -0.33344,-1.640928 -0.18875,-0.584718 -0.27345,-1.143877 -0.18867,-1.241674 0.0848,-0.09781 0.0384,-0.196027 -0.10531,-0.219374 -0.14402,-0.02337 -0.18775,-0.173622 -0.0921,-0.33784 0.0955,-0.164202 0.0334,-0.37872 -0.14486,-0.482616 -0.18232,-0.106149 -0.24315,-0.328052 -0.14035,-0.504578 0.1129,-0.194 0.0501,-0.338558 -0.16238,-0.372929 -0.18875,-0.03062 -0.2631,-0.147704 -0.16664,-0.258885 0.0964,-0.111139 0.0517,-0.22232 -0.0922,-0.245693 -0.14402,-0.02336 -0.17573,-0.185988 -0.0743,-0.359778 0.10113,-0.173789 0.0889,-0.327209 -0.0309,-0.346601 -0.11966,-0.01936 -0.18917,-0.219158 -0.15354,-0.438774 0.0359,-0.219575 -0.0584,-0.646317 -0.20619,-0.952073 -0.2671,-1.330291 -0.70735,-3.000925 -0.48264,-4.488433 1.30916,-6.11405 0.37667,-6.212014 0.32902,-7.972125 -0.0159,0.100383 -0.18658,0.05924 -0.37725,-0.09214 -0.22096,-0.1754 -0.568,-0.223647 -0.95652,-0.140395 -0.33528,0.07185 -0.89018,0.102928 -1.22846,0.0746 -0.33845,-0.02837 -0.83503,0.09826 -1.11006,0.276417 -0.34729,0.224923 -0.51652,0.236322 -0.54848,0.03947 -0.0676,-0.417429 -1.06149,0.04464 -1.48731,0.693229 -0.19392,0.2953 -0.50558,0.473995 -1.20226,0.627416 l -0.95196,5.861632 c 0.19,-0.06968 0.37074,-0.152627 0.53521,-0.245693 0.12374,-0.07351 0.21553,-0.116004 0.29397,-0.100925 0.17256,0.03321 0.28179,0.336446 0.50893,1.162702 0.20009,0.727983 0.35772,2.03662 0.35547,2.90892 0,1.245628 -0.15671,2.081238 -0.7152,3.89175 -0.55691,1.805179 -0.6744,2.058758 -0.55282,1.175844 0.0426,-0.31143 0.0651,-0.548336 0.0484,-0.776589 l -0.39928,2.443852 0.0309,-0.105306 -0.0618,0.302718 -0.11841,0.728334 -0.0351,-0.0042 -0.15796,0.759041 c -0.20635,0.980902 -0.56183,2.293219 -0.78971,2.917706 -0.28321,0.776072 -0.44009,1.774656 -0.4914,3.150241 -0.0417,1.106978 -0.30533,3.06179 -0.58361,4.348039 -0.52361,2.420338 -1.27052,4.28866 -1.01785,2.544753 0.0676,-0.464558 0.0259,-0.85904 -0.0878,-0.877507 -0.11374,-0.01836 -0.21546,-0.374146 -0.2369,-0.78974 -0.0217,-0.415568 -0.20945,-1.196655 -0.4168,-1.737473 -0.20745,-0.540818 -0.38418,-1.08822 -0.3861,-1.215338 -0.0292,-1.805347 -1.59846,-5.712008 -2.53603,-6.31364 -0.59863,-0.384119 -1.7132,-1.478738 -1.68482,-1.654088 0.0184,-0.111339 -0.10389,-0.227919 -0.26761,-0.254496 -0.36148,-0.05858 -1.12182,-1.138895 -1.06183,-1.509304 0.0242,-0.146461 -0.0317,-0.263424 -0.12725,-0.258852 -0.66989,-0.432123 -1.66671,-1.692847 -2.21127,-2.44825 1.05399,-1.512633 1.39043,-1.117183 -0.35096,-1.399608 l 0.4168,-2.562335 c -0.18591,0.09738 -0.39269,0.158961 -0.61865,0.162366 -0.12667,-0.02053 -0.19401,0.168006 -0.15796,0.412414 0.0417,0.28517 -0.0718,0.466845 -0.31592,0.517737 -0.2092,0.04364 -0.33119,0.194984 -0.27203,0.337824 0.0592,0.142839 -0.0409,0.392754 -0.21938,0.548444 -0.37591,0.327977 -0.70743,0.300032 -1.13191,-0.08336 -0.16589,-0.149791 -0.52078,-0.306232 -0.78538,-0.351 -0.26469,-0.04464 -0.7515,-0.438123 -1.08811,-0.873125 -0.3367,-0.434978 -0.81024,-0.826381 -1.04431,-0.86434 -0.23397,-0.03797 -0.39635,-0.205372 -0.36848,-0.377334 0.0275,-0.171903 -0.1951,-0.416436 -0.49141,-0.544039 -0.29631,-0.127611 -0.5196,-0.332182 -0.50016,-0.451908 0.0192,-0.119726 -0.36106,-0.341019 -0.84245,-0.500181 -0.48139,-0.159169 -0.86048,-0.363007 -0.84679,-0.447519 0.19793,-0.536312 0.3644,-1.037911 0.51777,-1.522488 l -0.53972,-0.08775 c -0.0192,0.02211 -0.0409,0.04331 -0.0659,0.06141 -0.51694,0.372628 -1.11456,0.640851 -1.32509,0.596709 -0.23256,-0.04882 -0.2651,-0.107993 -0.0834,-0.149189 0.47997,-0.108711 0.40796,-0.473245 -0.10965,-0.557199 -0.47922,-0.07769 -2.07909,-1.230191 -2.04021,-1.469826 0.01,-0.06158 0.61031,0.0042 1.36448,0.118457 0.48106,0.07285 0.8629,0.03939 1.15837,-0.02628 l 0.0743,-0.469474 2.03145,0.329087 c 1.30465,-4.635904 -7.81855,-9.619745 -12.84222,-9.6043 z m 4.21201,2.171825 c 0.0367,0.0042 0.15596,0.08612 0.28955,0.179914 0.25617,0.179772 0.45686,0.368147 0.44751,0.425582 -0.0275,0.171878 -0.13651,0.108043 -0.53521,-0.333468 -0.19409,-0.203562 -0.23882,-0.275983 -0.20185,-0.272028 z m -2.8124,0.0042 c 0.0134,-0.0025 0.0309,0 0.0567,0.0042 0.0709,0.01393 0.18266,0.05466 0.34662,0.127244 0.24199,0.107042 0.84813,0.713121 1.34262,1.342565 0.49449,0.629453 0.84254,1.13837 0.77219,1.132003 -0.0701,-0.0058 -0.36765,-0.354955 -0.65812,-0.776614 -0.29047,-0.42169 -0.84128,-0.986406 -1.22412,-1.25049 -0.51544,-0.355522 -0.73181,-0.561204 -0.63618,-0.579161 z m -1.21979,0.403653 c 0.0209,-0.0025 0.0484,-0.0017 0.0834,0.0042 0.24232,0.03989 0.70536,0.373196 1.0267,0.737112 0.70577,0.799211 0.63225,0.783599 -0.55282,-0.114085 -0.50642,-0.383626 -0.70235,-0.607707 -0.55724,-0.627399 z m -1.00909,1.697971 c 0.0459,-0.0042 0.0876,-0.005 0.11849,0 0.1235,0.02003 0.0559,0.112115 -0.1492,0.201826 -0.20477,0.08971 -0.47312,0.142881 -0.5967,0.122855 -0.12358,-0.02003 -0.0559,-0.107735 0.14919,-0.197446 0.15354,-0.06726 0.34096,-0.115486 0.47822,-0.127235 z m 2.35613,0.188667 c 0.0309,-0.0075 0.10431,0.06433 0.22814,0.206215 0.1628,0.18664 0.29272,0.370158 0.28521,0.416812 -0.0409,0.251659 -0.42607,-0.02971 -0.49583,-0.364158 -0.0342,-0.163734 -0.0484,-0.251276 -0.0175,-0.258869 z m 34.67019,0.07902 c 0.0217,0.0033 0.0275,0.01986 0.0175,0.06575 -0.0924,0.42171 -0.57993,1.077456 -0.53529,0.719564 0.0234,-0.186414 0.16171,-0.47468 0.31158,-0.6406 0.0936,-0.103671 0.17006,-0.149666 0.20619,-0.144759 z m -24.05243,31.616438 c 0.0376,-0.0017 0.0592,0.02094 0.0526,0.07018 -0.0434,0.32655 2.29663,0.546567 3.62406,0.33784 0.60756,-0.09551 1.15337,-0.121594 1.47863,-0.09213 0.32527,0.02945 0.42707,0.112699 0.13602,0.236914 -0.19785,0.08439 -0.4345,0.08853 -0.52645,0.0086 -0.24858,-0.215495 -2.3941,0.671617 -2.28153,0.943336 0.0534,0.128287 -0.0467,0.208652 -0.2238,0.179897 -0.17748,-0.02879 -0.47154,0.07735 -0.64936,0.232533 -0.17782,0.15514 -0.80507,0.274223 -1.39519,0.263258 -1.19166,-0.0222 -2.06891,0.430647 -2.42196,1.250444 -0.16497,0.382933 -0.13184,0.649812 0.11849,0.912586 0.55707,0.584793 0.96745,0.544932 2.4263,-0.214969 1.30132,-0.677908 2.33435,-0.946565 2.53595,-0.66691 0.0517,0.07143 0.0989,0.409836 0.10531,0.759041 0.009,0.494623 -0.0584,0.598737 -0.30273,0.456297 -0.22347,-0.130081 -0.28964,-0.07643 -0.23256,0.197438 0.0584,0.27887 0,0.319298 -0.19301,0.149189 -0.20052,-0.173864 -0.25309,-0.12449 -0.18867,0.184253 0.0542,0.258961 0,0.371385 -0.14477,0.293974 -0.39035,-0.204463 -1.74448,0.825996 -1.65411,1.259238 0.0609,0.291871 -0.009,0.328211 -0.29398,0.162316 -0.25617,-0.149123 -0.33653,-0.123481 -0.25442,0.0746 0.0726,0.175274 -0.0209,0.2639 -0.24132,0.228161 -0.19993,-0.03238 -0.31525,0.05274 -0.25893,0.188684 0.0567,0.135905 -0.0242,0.226367 -0.17548,0.201809 -0.15145,-0.02453 -0.22229,0.0363 -0.15354,0.131617 0.0684,0.09533 -0.29255,0.43617 -0.80732,0.763447 -0.61865,0.393272 -0.91246,0.726631 -0.85997,0.978415 0.0987,0.473212 -0.008,0.467629 -0.28955,-0.01318 -0.251,-0.426541 0.6552,-1.659912 2.40878,-3.281865 0.56917,-0.526541 1.06816,-1.146723 1.10563,-1.377687 0.0893,-0.55099 -0.0109,-0.543964 -0.82051,0.03947 -0.67714,0.488223 -1.49214,0.433533 -2.40435,-0.157952 -0.22288,-0.144508 -0.4526,-0.04823 -0.72396,0.307141 -0.21829,0.28583 -0.4335,0.462948 -0.48256,0.394849 -0.0492,-0.06809 0.0459,-0.24384 0.21937,-0.394849 0.36515,-0.318548 0.45844,-2.214648 0.10089,-2.066535 -0.30466,0.126218 0.17323,-1.015531 0.65812,-1.570727 0.21086,-0.241504 0.5867,-0.46747 0.83803,-0.504561 0.25125,-0.03713 0.53871,-0.205556 0.63618,-0.372979 0.10255,-0.176092 0.31567,-0.226567 0.50892,-0.114051 0.19752,0.114969 0.49057,0.04289 0.71954,-0.175508 0.13318,-0.12701 0.24466,-0.199281 0.30716,-0.201826 z m -1.03546,3.132692 c 0.2314,0 0.42123,0.205372 0.42123,0.456297 0,0.250925 -0.18983,0.451925 -0.42123,0.451925 -0.2313,0 -0.4168,-0.201 -0.4168,-0.451925 0,-0.250925 0.1855,-0.456297 0.4168,-0.456297 z m -4.41386,1.241673 c 0.0701,0.005 0.0944,0.07936 0.1185,0.228136 0.0309,0.191655 0.30457,0.648795 0.60547,1.013521 0.49482,0.599855 0.73097,1.247364 0.32468,0.895046 -0.0914,-0.07919 -0.45327,-0.05357 -0.8029,0.06142 -0.46871,0.154188 -0.59721,0.141012 -0.48707,-0.04823 0.0826,-0.141188 -0.0267,-0.477543 -0.24123,-0.745874 -0.47363,-0.592261 -0.45669,-0.802674 0.10964,-1.210949 0.18608,-0.134128 0.30232,-0.19798 0.37291,-0.193057 z m 0.51778,2.707077 c 0.20844,0 0.37733,0.176718 0.37733,0.3949 0,0.218172 -0.16889,0.394865 -0.37733,0.394865 -0.20853,0 -0.37734,-0.176693 -0.37734,-0.394865 0,-0.218182 0.16881,-0.3949 0.37734,-0.3949 z"
       style="color:#000000;fill:#aa0000;fill-opacity:1;fill-rule:nonzero;stroke:none;stroke-width:1;marker:none;visibility:visible;display:inline;overflow:visible;enable-background:accumulate" />
    <path
       sodipodi:nodetypes="ccsccsscscccssccssccsccsssccsssscscc"
       inkscape:connector-curvature="0"
       id="path4611"
       d="m 339.11474,31.378806 -79.68104,0.136198 0,38.827262 c 0,42.264204 -0.01,44.424324 -0.17072,44.378144 -0.093,-0.0267 -0.54815,-0.16542 -1.01126,-0.30206 -1.2656,-0.37339 -2.31833,-0.48249 -4.07792,-0.42028 -1.11915,0.0396 -1.87448,0.12732 -2.73838,0.30864 -7.1268,1.49575 -13.82544,7.04459 -15.84562,13.13349 -0.32326,0.97447 -0.68291,2.84063 -0.68291,3.53291 0,0.59781 0.34187,2.28822 0.59104,2.92221 1.04305,2.65492 3.54429,4.46479 6.88848,4.98417 0.31867,0.0495 1.38801,0.0793 2.37064,0.0591 2.05865,-0.0423 3.35554,-0.27329 5.34535,-0.93245 1.45593,-0.48235 3.92972,-1.68506 5.27308,-2.56763 4.14409,-2.7226 7.25497,-6.59542 8.35293,-10.4083 0.27645,-0.95997 0.48055,-2.85947 0.39394,-3.62486 -0.0426,-0.37855 -0.0275,-0.57788 0.0392,-0.57788 0.0709,0 0.0985,-12.51245 0.0985,-41.239218 0,-22.679784 0.0526,-35.62925 0.0526,-35.62925 l 69.79799,0.201201 c 0,0 0.16414,-2.551738 0.16414,32.047378 8e-5,35.098419 -0.01,36.898809 -0.17065,36.852639 -0.093,-0.0267 -0.54163,-0.15886 -1.00475,-0.29551 -1.26559,-0.37338 -2.32492,-0.48247 -4.0845,-0.42027 -4.75715,0.16815 -9.9251,2.50619 -13.79674,6.24499 -2.74748,2.65311 -4.35119,5.28095 -5.14833,8.45141 -0.35589,1.41517 -0.36866,3.07484 -0.0392,4.24869 0.79272,2.82651 2.76467,4.75367 5.72618,5.59487 1.29731,0.3685 2.34395,0.47763 4.08459,0.4137 2.68932,-0.0987 5.05471,-0.73563 7.82097,-2.09478 2.5826,-1.26888 4.60428,-2.71893 6.52742,-4.69523 2.15836,-2.21822 3.67813,-4.69729 4.37339,-7.11838 0.28012,-0.97542 0.49423,-2.87517 0.4072,-3.64453 -0.0426,-0.37852 -0.0342,-0.5713 0.0326,-0.5713 0.0709,0 0.10505,-12.21615 0.10505,-40.267358 -0.01,-15.92938 0.008,-31.598365 0.008,-47.527729 z"
       style="color:#000000;fill:#aa0000;fill-opacity:1;fill-rule:nonzero;stroke:none;marker:none;visibility:visible;display:inline;overflow:visible;enable-background:accumulate" />
    <text
       xml:space="preserve"
       style="font-size:12.93640614px;font-style:normal;font-variant:normal;font-weight:normal;font-stretch:normal;text-align:start;line-height:125%;letter-spacing:0px;word-spacing:0px;writing-mode:lr-tb;text-anchor:start;fill:#000000;fill-opacity:1;stroke:none;font-family:Arial Black;-inkscape-font-specification:'Arial Black,'"
       x="51.945099"
       y="329.59845"
       id="text4613"
       sodipodi:linespacing="125%"><tspan
         sodipodi:role="line"
         id="tspan4615"
         x="51.945099"
         y="329.59845">TURBOSLOTH</tspan></text>
    <use
       x="0"
       y="0"
       xlink:href="#path4591"
       id="use4621"
       transform="matrix(0.16906517,0,0,0.16906517,-151.98135,245.32872)"
       width="744.09448"
       height="1052.3622"
       style="fill:url(#linearGradient4273);fill-opacity:1" />
    <path
       style="font-size:medium;font-style:normal;font-variant:normal;font-weight:normal;font-stretch:normal;text-indent:0;text-align:start;text-decoration:none;line-height:normal;letter-spacing:normal;word-spacing:normal;text-transform:none;direction:ltr;block-progression:tb;writing-mode:lr-tb;text-anchor:start;baseline-shift:baseline;color:#000000;fill:url(#linearGradient3531-2);fill-opacity:1;fill-rule:nonzero;stroke:none;stroke-width:1;marker:none;visibility:visible;display:inline;overflow:visible;enable-background:accumulate;font-family:Sans;-inkscape-font-specification:Sans"
       d="m 168.84395,330.87872 c 0,8.79644 -7.31233,16.10345 -16.10872,16.10345 l -119.627048,0 c 0,0 -0.04982,-83.7667 -0.04982,-114.59449 0,-8.79645 7.307015,-16.10346 16.103468,-16.10346 76.578705,-0.0988 118.966565,-0.0868 118.966565,-0.0868 0,0 0.71572,63.13779 0.71572,114.68127 z m -16.10872,-100.14999 -103.573569,0 c -1.043312,0 -1.658951,0.61564 -1.658951,1.65895 l 0,98.49104 c 0,1.0433 0.615639,1.65895 1.658951,1.65895 l 103.573569,0 c 1.04325,0 1.65895,-0.61565 1.65895,-1.65895 l 0,-98.49104 c 0,-1.04331 -0.6157,-1.65895 -1.65895,-1.65895 z"
       id="rect4619"
       inkscape:connector-curvature="0"
       sodipodi:nodetypes="cscccccsssssssss" />
    <use
       x="0"
       y="0"
       xlink:href="#use4621"
       id="use3282"
       transform="translate(152.15866,-1.4491267)"
       width="744.09448"
       height="1052.3622" />
    <path
       style="font-size:medium;font-style:normal;font-variant:normal;font-weight:normal;font-stretch:normal;text-indent:0;text-align:start;text-decoration:none;line-height:normal;letter-spacing:normal;word-spacing:normal;text-transform:none;direction:ltr;block-progression:tb;writing-mode:lr-tb;text-anchor:start;baseline-shift:baseline;color:#000000;fill:url(#linearGradient3531-2-0);fill-opacity:1;fill-rule:nonzero;stroke:none;stroke-width:1;marker:none;visibility:visible;display:inline;overflow:visible;enable-background:accumulate;font-family:Sans;-inkscape-font-specification:Sans"
       d="m 184.20245,215.60268 0,7.22754 0,116.25343 0,7.22226 7.22226,0 121.33593,0 7.22231,0 0,-7.22226 0,-116.25343 0,-7.22754 -7.22231,0 -121.33593,0 -7.22226,0 z m 14.44452,14.44979 106.89141,0 0,101.80365 -106.89141,0 0,-101.80365 z"
       id="rect4619-9"
       inkscape:connector-curvature="0" />
    <text
       xml:space="preserve"
       style="font-size:12.93640614px;font-style:normal;font-variant:normal;font-weight:normal;font-stretch:normal;text-align:start;line-height:125%;letter-spacing:0px;word-spacing:0px;writing-mode:lr-tb;text-anchor:start;fill:#000000;fill-opacity:1;stroke:none;font-family:Arial Black;-inkscape-font-specification:'Arial Black,'"
       x="201.99556"
       y="328.36652"
       id="text4613-1"
       sodipodi:linespacing="125%"><tspan
         sodipodi:role="line"
         id="tspan4615-9"
         x="201.99556"
         y="328.36652">TURBOSLOTH</tspan></text>
    <rect
       style="color:#000000;fill:#ffccaa;fill-opacity:1;fill-rule:nonzero;stroke:none;stroke-width:1;marker:none;visibility:visible;display:inline;overflow:visible;enable-background:accumulate"
       id="rect3062"
       width="137.47452"
       height="137.47452"
       x="393.9512"
       y="15.895996" />
    <use
       x="0"
       y="0"
       xlink:href="#path3724"
       id="use3058"
       transform="translate(183.26572,-6.8188663)"
       width="744.09448"
       height="1052.3622" />
    <use
       x="0"
       y="0"
       xlink:href="#path4611"
       id="use3060"
       transform="translate(183.1388,-7.3417443)"
       width="744.09448"
       height="1052.3622" />
    <text
       xml:space="preserve"
       style="font-size:14.00349331px;font-style:normal;font-variant:normal;font-weight:normal;font-stretch:normal;text-align:start;line-height:125%;letter-spacing:0px;word-spacing:0px;writing-mode:lr-tb;text-anchor:start;fill:#d40000;fill-opacity:1;stroke:none;font-family:Arial Black;-inkscape-font-specification:'Arial Black,'"
       x="407.88318"
       y="148.16122"
       id="text4613-16"
       sodipodi:linespacing="125%"><tspan
         sodipodi:role="line"
         id="tspan4615-0"
         x="407.88318"
         y="148.16122">TURBOSLOTH</tspan></text>
    <text
       xml:space="preserve"
       style="font-size:10.36278343px;font-style:normal;font-variant:normal;font-weight:normal;font-stretch:normal;text-align:start;line-height:125%;letter-spacing:0px;word-spacing:0px;writing-mode:lr-tb;text-anchor:start;fill:#d40000;fill-opacity:1;stroke:none;font-family:Arial Black;-inkscape-font-specification:'Arial Black,'"
       x="259.7348"
       y="28.258259"
       id="text4613-16-8"
       sodipodi:linespacing="125%"><tspan
         sodipodi:role="line"
         id="tspan4615-0-4"
         x="259.7348"
         y="28.258259">TURBOSLOTH</tspan></text>
    <rect
       y="15.856911"
       x="584.35358"
       height="137.47452"
       width="137.47452"
       id="rect3120-4"
       style="color:#000000;fill:#ffccaa;fill-opacity:1;fill-rule:nonzero;stroke:none;stroke-width:1;marker:none;visibility:visible;display:inline;overflow:visible;enable-background:accumulate"
       ry="14.050037" />
    <use
       x="0"
       y="0"
       xlink:href="#use3058"
       id="use3116"
       transform="translate(179.23107,3.921046)"
       width="744.09448"
       height="1052.3622" />
    <use
       x="0"
       y="0"
       xlink:href="#use3060"
       id="use3118"
       transform="translate(178.70821,4.966826)"
       width="744.09448"
       height="1052.3622" />
    <path
       style="color:#000000;fill:#ffcc00;fill-opacity:1;fill-rule:nonzero;stroke:none;stroke-width:1;marker:none;visibility:visible;display:inline;overflow:visible;enable-background:accumulate"
       d="m 179.45275,616.48683 c -13.38449,-5.84882 -29.21033,-1.00185 -29.21033,-1.00185 0,0 -0.65843,17.30522 13.91112,27.55984 29.36374,17.20675 111.65093,64.12507 141.34112,81.22859 0.57363,0.51965 13.34552,-1.48595 13.98129,-2.5601 l 7.06497,-11.93571 c 0.055,-1.17009 -3.04674,-12.39311 -4.94131,-13.46094 -29.42289,-16.39331 -113.67609,-64.85687 -142.14686,-79.82983 z"
       id="rect4223"
       inkscape:connector-curvature="0"
       sodipodi:nodetypes="ccccsccc"
       inkscape:export-filename="/home/woelper/Documents/leukosia/webfrontend/static/img/logo_large.png"
       inkscape:export-xdpi="102.29155"
       inkscape:export-ydpi="102.29155" />
    <path
       style="color:#000000;fill:#ffcc00;fill-opacity:1;fill-rule:nonzero;stroke:none;stroke-width:1;marker:none;visibility:visible;display:inline;overflow:visible;enable-background:accumulate"
       d="m 308.89737,671.39575 20.2015,8.3466 -11.59347,20.12532 -31.13222,-17.93422 z"
       id="rect4228"
       inkscape:connector-curvature="0"
       sodipodi:nodetypes="ccccc"
       inkscape:export-filename="/home/woelper/Documents/leukosia/webfrontend/static/img/logo_large.png"
       inkscape:export-xdpi="102.29155"
       inkscape:export-ydpi="102.29155" />
    <use
       x="0"
       y="0"
       xlink:href="#rect4228"
       id="use4231"
       transform="matrix(0.50166625,0.86506125,0.86506125,-0.50166625,-457.96148,796.12125)"
       width="744.09448"
       height="1052.3622"
       inkscape:export-filename="/home/woelper/Documents/leukosia/webfrontend/static/img/logo_large.png"
       inkscape:export-xdpi="102.29155"
       inkscape:export-ydpi="102.29155" />
    <path
       style="color:#000000;fill:#ffcc00;fill-opacity:1;fill-rule:nonzero;stroke:none;stroke-width:1;marker:none;visibility:visible;display:inline;overflow:visible;enable-background:accumulate"
       d="m 170.498,623.88391 c -3.96613,-2.04461 -7.3858,-1.53589 -8.36555,3.6245 l -0.26645,1.61028 c -10.22906,3.77046 -9.33993,4.24374 -2.30092,7.20011 l 1.11154,3.49506 1.18088,8.43901 c 1.65332,8.03807 -0.13404,3.24781 2.44856,12.74936 0.33427,1.23811 0.68072,2.67772 0.77096,3.20229 0.32435,1.88496 1.4601,6.07832 1.69016,6.24956 0.56731,0.42228 2.00821,5.17205 1.70035,5.59788 -0.18771,0.25937 -0.10095,0.49589 0.18359,0.52055 0.28474,0.0243 1.00807,2.14325 1.62208,4.70709 0.84768,3.53964 0.99569,5.31633 0.61056,7.37938 -0.27906,1.49421 -0.67218,2.94076 -0.88197,3.22269 -0.20966,0.28212 -0.65236,1.38592 -0.98119,2.44667 -0.32892,1.06048 -0.76112,1.93928 -0.95455,1.9676 -0.19343,0.0283 -1.61846,-0.80472 -3.17691,-1.86292 -1.55823,-1.05842 -3.16695,-2.14589 -3.57472,-2.41733 -0.40765,-0.2715 -1.61194,-0.4982 -2.67643,-0.50161 -1.06458,-0.003 -2.01492,-0.0615 -2.1146,-0.13234 -0.7222,-0.51435 -3.02402,0.0556 -5.87029,1.46204 -1.84115,0.90987 -3.49068,1.66992 -3.67651,1.68404 -0.18566,0.014 -1.08883,0.50591 -2.00306,1.08484 -1.88631,1.19441 -3.41228,3.41902 -4.0293,5.89655 -0.52339,2.10099 0.61684,9.26534 1.79255,11.2783 0.99576,1.70469 4.48827,4.04449 7.88656,5.27563 1.83701,0.66538 2.0475,0.8437 2.6555,2.34559 0.67428,1.66559 1.04806,4.45499 0.6631,4.97215 -0.11846,0.15856 0.0153,0.30586 0.30166,0.33059 0.28648,0.0245 0.38672,0.22457 0.22324,0.44447 -0.16347,0.21922 -0.0514,0.42583 0.25756,0.4526 0.30927,0.0271 0.55584,0.54196 0.53802,1.15869 -0.0188,0.65128 0.26276,1.21741 0.66205,1.32928 0.40428,0.11308 0.75207,0.8508 0.85417,1.79633 0.0954,0.88471 0.31251,1.41883 0.48388,1.1885 0.23048,-0.30916 0.3714,-0.19583 0.52253,0.42606 0.15688,0.64596 0.38701,0.83853 1.01142,0.80557 0.46858,-0.0247 0.79572,0.15415 0.77159,0.43014 -0.0423,0.48887 1.27297,2.20535 2.65755,3.45766 0.63258,0.57214 0.84953,0.52697 1.1497,-0.20464 l 0.35923,-0.89541 0.0385,1.22759 c 0.0301,0.88851 0.29274,1.28965 0.96267,1.47598 0.60003,0.16663 0.99715,0.60591 1.13841,1.26764 0.17868,0.83522 0.28363,0.92128 0.60173,0.51544 0.21248,-0.27018 0.31786,0.0795 0.23333,0.77818 -0.0935,0.76922 0.005,1.06735 0.25678,0.75172 0.36986,-0.46382 0.41829,-0.43404 0.37142,0.27071 -0.0381,0.57576 0.0376,0.66298 0.29404,0.32663 0.19504,-0.25399 0.44208,-0.24341 0.54797,0.0239 0.10594,0.26723 0.33263,0.30071 0.5051,0.0692 0.23408,-0.31395 0.36639,-0.2131 0.51885,0.41445 0.16496,0.679 0.2786,0.75787 0.58101,0.36945 0.26015,-0.33375 0.34587,-0.21046 0.27759,0.39538 -0.054,0.4806 0.17459,0.94635 0.5207,1.04344 0.34593,0.0975 0.61367,0.43824 0.58663,0.74908 -0.0272,0.31057 0.15262,0.575 0.40489,0.59675 0.2523,0.0216 0.38732,0.50152 0.30161,1.07453 -0.0857,0.57304 0.0922,1.11901 0.38781,1.20619 0.29573,0.0872 0.81555,0.83725 1.15898,1.67444 0.38666,0.94247 0.81904,1.45659 1.12204,1.33644 0.48941,-0.19392 2.41718,2.459 2.81583,3.87818 0.12378,0.44045 0.27739,0.55282 0.4551,0.31418 0.15006,-0.20208 0.54009,-0.0294 0.87212,0.38544 0.33782,0.42195 0.8825,0.65307 1.23062,0.51377 0.44472,-0.17623 0.52735,0.028 0.27987,0.74433 -0.26952,0.78042 -0.20924,0.94944 0.32593,0.74899 0.43377,-0.16254 0.6958,-0.0576 0.6971,0.29453 0.002,0.68337 3.29365,3.28574 3.34873,2.64781 0.0216,-0.25165 0.64768,0.10229 1.39164,0.7804 0.74363,0.67852 1.4637,1.08505 1.59621,0.90698 0.13224,-0.17865 0.32899,-0.12331 0.4277,0.1253 0.0986,0.24878 0.40582,0.34594 0.69047,0.23316 0.35993,-0.14274 0.57779,0.0505 0.71155,0.60145 0.14977,0.61646 0.27128,0.67778 0.55835,0.30133 0.2905,-0.38131 0.36628,-0.31828 0.32498,0.30416 -0.0441,0.6665 0.024,0.68411 0.44665,0.12615 0.40203,-0.53094 0.53792,-0.49664 0.69181,0.1373 0.13813,0.5686 0.34828,0.73435 0.73112,0.58266 0.37924,-0.15041 0.58627,0.0268 0.73035,0.62101 0.1626,0.66944 0.35017,0.77973 0.91553,0.56238 0.60512,-0.23229 0.64634,-0.19622 0.3142,0.26915 -0.32031,0.44956 -0.2624,0.50511 0.29471,0.28845 0.37246,-0.143 0.76504,-0.0197 0.88153,0.27426 0.12892,0.32537 0.28572,0.28298 0.39672,-0.1127 0.12789,-0.45665 0.41335,-0.45858 0.95835,0.0149 0.84793,0.73654 2.12378,0.9088 2.17732,0.29054 0.0183,-0.21372 0.40398,-0.0407 0.84939,0.37364 0.6056,0.56332 0.94065,0.57544 1.31409,0.074 0.34044,-0.45792 0.61867,-0.47441 0.88661,-0.0513 0.24593,0.38841 0.47944,0.42373 0.63514,0.0792 0.13699,-0.30274 0.42422,-0.43287 0.64101,-0.28532 0.48837,0.33259 2.39973,0.0804 2.72813,-0.36041 0.31454,-0.42326 2.78816,0.0449 3.34157,0.6345 0.23935,0.25507 0.51518,0.20114 0.6194,-0.13224 0.22863,-0.73035 2.06394,-1.01919 2.50229,-0.39075 0.1752,0.25104 0.48406,0.23569 0.68306,-0.0316 0.44356,-0.59592 2.68609,-0.79943 2.89908,-0.26192 0.16982,0.4282 1.88232,0.30965 3.55487,-0.25942 0.82864,-0.28184 1.11925,-0.19679 1.2631,0.3953 0.10208,0.42085 0.26607,0.59889 0.36586,0.39291 0.43483,-0.8956 0.97455,-1.20785 1.18388,-0.67956 0.15431,0.3895 0.29986,0.31174 0.45626,-0.24596 0.16975,-0.60507 0.31531,-0.66119 0.60151,-0.20927 0.23991,0.37897 0.55546,0.4017 0.80804,0.0623 0.22327,-0.29961 0.49307,-0.3233 0.59904,-0.0559 0.10977,0.27722 0.51346,0.0604 0.95486,-0.499 0.42561,-0.53966 0.71434,-0.69979 0.62693,-0.36994 -0.10923,0.41203 0.40773,0.49691 1.69055,0.2792 1.02663,-0.17446 1.95918,-0.11316 2.06076,0.14313 0.10155,0.25638 0.33197,0.28289 0.50532,0.0504 0.17285,-0.23295 1.53251,-1.03788 3.02259,-1.80143 2.23618,-1.14551 3.15367,-1.93291 5.25371,-4.47796 1.39926,-1.69635 3.18087,-3.62195 3.96175,-4.26023 1.79458,-1.46575 2.16202,-1.93421 1.217,-1.5802 -0.51865,0.1936 -0.28803,-0.26942 0.75947,-1.51834 0.8266,-0.98529 1.38239,-1.88531 1.23107,-1.99795 -0.67877,-0.50532 2.1818,-1.71523 4.21512,-1.79066 1.23709,-0.0457 2.43955,-0.3537 2.67921,-0.67556 0.68998,-0.92688 0.64541,-4.09011 -0.0627,-4.62169 -0.35334,-0.26582 -0.46481,-0.56014 -0.24308,-0.64791 0.47771,-0.18941 -0.62626,-0.95718 -1.48333,-1.03145 -0.32844,-0.0283 -0.50908,-0.30053 -0.40855,-0.60835 0.14302,-0.44013 -0.0285,-0.55545 -0.77425,-0.51806 -0.52251,0.0262 -1.1183,-0.22583 -1.32577,-0.55361 -0.20756,-0.32757 -0.57947,-0.50973 -0.81863,-0.41401 -0.23874,0.0945 -0.72097,-0.0769 -1.07539,-0.38478 -0.51809,-0.45001 -0.3887,-1.05374 0.64624,-3.10365 0.70807,-1.40205 1.75561,-3.33825 2.32913,-4.2969 0.57352,-0.95866 1.42933,-2.75139 1.89452,-3.98155 0.86423,-2.28791 3.81962,-6.39966 4.33407,-6.01836 0.15697,0.11647 0.34179,-0.14946 0.40034,-0.60362 0.0604,-0.46072 0.65144,-1.30603 1.3487,-1.90787 0.6857,-0.5924 1.95168,-1.99637 2.81279,-3.10841 0.86098,-1.11222 1.73101,-2.20239 1.92428,-2.43972 1.01917,-1.2499 3.06703,-5.3108 3.40248,-6.7535 0.21136,-0.90969 0.41732,-1.75841 0.46997,-1.87169 0.10017,-0.21457 -0.0271,-2.49233 -0.28838,-5.15421 -0.084,-0.85464 -0.11889,-2.53776 -0.076,-3.75898 l 0.0842,-2.22658 c -0.33234,-7.05443 -1.75143,-10.51646 -4.27685,-16.76168 -1.56796,0.71498 -3.03642,-0.0884 -3.92805,-2.14653 -1.13858,-2.62889 -3.19286,-4.83266 -5.26555,-5.65305 -2.02859,-0.80288 -5.16096,-1.1049 -5.59782,-0.53143 -0.14838,0.19235 -0.38209,0.30579 -0.67285,0.36547 l -6.75904,9.08675 c 0.47779,0.20651 0.86727,0.42012 1.08334,0.57406 0.1182,0.084 0.18872,0.15213 0.19245,0.20591 0.0413,0.62998 -3.73013,13.63106 -4.39893,15.16271 -0.53681,1.22857 -3.11045,4.97248 -6.39076,9.32641 -3.01684,4.00443 -6.15156,8.52798 -6.98468,10.04188 -3.97895,7.23 -6.37036,11.50841 -7.11061,12.72032 -0.58363,0.95644 -0.99296,1.2448 -1.44229,1.0284 -0.41883,-0.20181 -0.41571,-0.63776 0.009,-1.31895 0.34753,-0.55836 0.61371,-1.32237 0.59395,-1.70102 -0.0203,-0.37879 0.10603,-0.71596 0.26831,-0.7397 0.16237,-0.0238 0.53119,-0.72382 0.82529,-1.55177 0.29396,-0.82813 0.86374,-2.13141 1.27192,-2.89458 0.40786,-0.76343 0.7084,-1.84846 0.65863,-2.42097 -0.05,-0.5726 0.0927,-1.06601 0.31994,-1.0994 0.22733,-0.0332 0.45173,-0.60339 0.49108,-1.26156 0.0397,-0.66314 0.25012,-1.12812 0.48835,-1.05068 0.2429,0.0788 0.52799,-0.49098 0.66073,-1.30876 0.17144,-1.05675 0.4013,-1.42822 0.83828,-1.39042 0.41616,0.036 0.61789,-0.50243 0.6525,-1.77687 0.0274,-1.00647 -0.0322,-1.96919 -0.13165,-2.14548 -0.0993,-0.17624 0.0144,-0.41136 0.252,-0.50679 0.23883,-0.0947 0.49879,-0.56036 0.5724,-1.04544 0.0735,-0.48526 0.36929,-1.33474 0.66563,-1.87631 0.29611,-0.54181 0.70045,-1.96179 0.89992,-3.14576 0.19936,-1.18387 0.55615,-2.22978 0.79129,-2.32298 0.23523,-0.0931 0.24405,-0.30492 0.0151,-0.47526 -0.22852,-0.17054 -0.16922,-0.47014 0.14454,-0.66875 0.31361,-0.1987 0.39975,-0.62634 0.18361,-0.96727 -0.22044,-0.34836 -0.12606,-0.78794 0.21114,-1.00144 0.37061,-0.23467 0.39102,-0.5423 0.0545,-0.79287 -0.29979,-0.22335 -0.32317,-0.49311 -0.0559,-0.59913 0.26718,-0.10585 0.29033,-0.33869 0.0619,-0.50899 -0.22868,-0.17064 -0.1372,-0.48079 0.1947,-0.69105 0.33195,-0.21014 0.44895,-0.4872 0.25894,-0.62861 -0.18996,-0.14151 -0.13053,-0.55046 0.12897,-0.8992 0.25993,-0.34852 0.48094,-1.1733 0.50011,-1.83666 0.73513,-2.54722 1.47664,-5.84073 3.20624,-8.21763 7.77766,-9.42235 6.24896,-10.43219 7.75186,-13.52714 -0.11885,0.15935 -0.37697,-0.0655 -0.5713,-0.49963 -0.22497,-0.50317 -0.78338,-0.89941 -1.53196,-1.10507 -0.64615,-0.17745 -1.6363,-0.62331 -2.19738,-0.97733 -0.56148,-0.35366 -1.53644,-0.58169 -2.17389,-0.52058 -0.8047,0.0772 -1.10846,-0.0554 -0.98652,-0.42573 0.25854,-0.78488 -1.88076,-0.879 -3.20352,-0.13772 -0.60206,0.33745 -1.30356,0.36653 -2.64969,0.005 l -6.93117,9.30655 c 0.39225,0.0506 0.78054,0.0693 1.1495,0.0561 0.28078,-0.016 0.47815,-0.007 0.60063,0.0898 0.26928,0.21313 0.18559,0.83734 -0.16487,2.47464 -0.30879,1.44257 -1.21425,3.85365 -2.0041,5.3641 -1.13096,2.15532 -2.14634,3.46781 -4.74573,6.10403 -2.5918,2.62856 -3.02388,2.96247 -2.01781,1.54101 0.35511,-0.50134 0.6072,-0.89202 0.78299,-1.30329 l -2.89376,3.87793 0.14812,-0.15497 -0.37923,0.46966 -0.86138,1.15619 -0.0566,-0.0406 -0.9577,1.17388 c -1.24135,1.51492 -3.03998,3.47022 -3.99769,4.34783 -1.19006,1.09059 -2.36159,2.68088 -3.68981,5.01984 -1.06902,1.8821 -3.28736,5.03406 -4.92851,7.01381 -3.08824,3.72517 -6.06633,6.29189 -4.05732,3.49558 0.53524,-0.74483 0.81905,-1.46599 0.63825,-1.6006 -0.18059,-0.13438 -0.0366,-0.84286 0.30064,-1.58283 0.33705,-0.73993 0.71468,-2.26361 0.8423,-3.38821 0.1276,-1.1246 0.31418,-2.23299 0.42523,-2.45522 1.57565,-3.15667 2.37375,-11.34439 1.28998,-13.23216 -0.69197,-1.20531 -1.6387,-4.10744 -1.43142,-4.38582 0.13138,-0.17697 0.0252,-0.48884 -0.23486,-0.68241 -0.57399,-0.42721 -0.91936,-2.98538 -0.4815,-3.57356 0.17276,-0.23276 0.18314,-0.48486 0.0125,-0.5635 -0.77247,-1.35272 -1.36519,-4.43672 -1.62904,-6.23707 3.19023,-1.67355 3.41738,-0.6848 0.65221,-2.7431 l 3.03083,-4.06761 c -0.40998,0.001 -0.8241,-0.0781 -1.21891,-0.27577 -0.2012,-0.14959 -0.48777,0.11657 -0.64546,0.57284 -0.18411,0.53227 -0.5453,0.74468 -1.0141,0.61327 -0.40196,-0.11302 -0.74993,0.0396 -0.77596,0.34074 -0.0262,0.30096 -0.42476,0.64411 -0.87444,0.75331 -0.94743,0.23004 -1.49702,-0.11701 -1.88774,-1.16424 -0.15276,-0.4092 -0.6272,-1.00004 -1.04565,-1.31603 -0.41877,-0.31559 -0.90831,-1.43659 -1.10028,-2.49417 -0.19193,-1.05744 -0.66043,-2.16278 -1.03207,-2.43935 -0.3717,-0.27648 -0.50238,-0.71321 -0.29921,-0.9863 0.20281,-0.27327 0.0368,-0.8979 -0.362,-1.38604 -0.39883,-0.48824 -0.60174,-1.04407 -0.46019,-1.23412 0.14159,-0.19012 -0.31886,-0.91659 -1.01017,-1.62619 -0.69132,-0.70959 -1.16518,-1.4046 -1.06515,-1.53881 0.82624,-0.75163 1.56673,-1.47141 2.26912,-2.17357 l -0.8567,-0.63831 c -0.0536,0.0207 -0.10929,0.039 -0.16948,0.0473 -1.23193,0.18051 -2.50984,0.10724 -2.83505,-0.15896 -0.35944,-0.29378 -0.3625,-0.42608 -0.0102,-0.33376 0.93013,0.24383 1.13363,-0.45312 0.31168,-1.06505 -0.76089,-0.56634 -2.49691,-4.00595 -2.21363,-4.38639 0.0723,-0.098 1.05371,0.55867 2.25935,1.4346 0.76838,0.55952 1.46067,0.84557 2.03243,0.99724 l 0.55217,-0.74685 3.22611,2.40053 c 6.43818,-6.86342 -4.89181,-23.72347 -13.61681,-28.22202 z m 5.34723,7.56002 c 0.0592,0.0421 0.1928,0.28981 0.34,0.57284 0.2822,0.54248 0.46058,1.04985 0.39271,1.14101 -0.20277,0.27319 -0.33412,0.0644 -0.62779,-1.06029 -0.15312,-0.52782 -0.16545,-0.69368 -0.10492,-0.65356 z m -4.88123,-2.52451 c 0.0277,0.003 0.0532,0.0277 0.0942,0.0602 0.10993,0.0876 0.26739,0.25926 0.48643,0.53285 0.32313,0.4036 0.82825,2.00047 1.11863,3.53739 0.29042,1.53683 0.43556,2.73292 0.31931,2.65845 -0.11649,-0.074 -0.31776,-0.94669 -0.44163,-1.93948 -0.12392,-0.99271 -0.57032,-2.46813 -0.99621,-3.27086 -0.57354,-1.08079 -0.7634,-1.63244 -0.58142,-1.57733 z m -2.47862,-0.39885 c 0.0401,0.01 0.0843,0.0438 0.13994,0.0839 0.38415,0.28745 0.88677,1.2824 1.11624,2.20293 0.50378,2.02157 0.39042,1.92831 -0.85581,-0.69577 -0.53261,-1.1214 -0.67043,-1.68646 -0.40106,-1.5898 z m -3.27942,2.03527 c 0.0836,0.0321 0.15653,0.07 0.20544,0.10668 0.19632,0.14593 -0.005,0.2444 -0.44045,0.21552 -0.43578,-0.0288 -0.94911,-0.17843 -1.14531,-0.32442 -0.19632,-0.14594 6.5e-4,-0.23687 0.43653,-0.20798 0.32684,0.0217 0.69524,0.10679 0.9438,0.21016 z m 3.91558,2.44948 c 0.061,0.015 0.12299,0.20555 0.20986,0.56305 0.11411,0.47037 0.17411,0.90564 0.11898,0.97966 -0.29771,0.39954 -0.71194,-0.43521 -0.53158,-1.07805 0.088,-0.31476 0.14205,-0.47942 0.20301,-0.46452 z m 60.04652,31.3677 c 0.0326,0.0283 0.03,0.0596 -0.0291,0.1298 -0.54004,0.648 -1.9761,1.34597 -1.57634,0.76561 0.20877,-0.30207 0.70805,-0.67747 1.11724,-0.83024 0.2558,-0.0954 0.42977,-0.10624 0.48804,-0.0653 z m -70.18662,33.1563 c 0.0648,0.0336 0.0837,0.0897 0.0281,0.16918 -0.3687,0.52753 3.49004,3.01658 5.97982,3.85035 1.13946,0.38166 2.10939,0.82806 2.64686,1.17218 0.5373,0.34448 0.63903,0.58012 0.0225,0.53332 -0.41908,-0.0319 -0.83329,-0.23782 -0.92079,-0.45919 -0.2368,-0.59754 -4.75623,-0.99202 -4.80584,-0.41952 -0.0237,0.27033 -0.26871,0.31984 -0.55001,0.11037 -0.28202,-0.20961 -0.8874,-0.29051 -1.33542,-0.18167 -0.44814,0.10886 -1.64314,-0.24986 -2.65655,-0.80039 -2.04639,-1.11156 -3.97533,-1.11689 -5.32594,-0.0134 -0.63092,0.51537 -0.81406,1.00802 -0.61661,1.68913 0.43915,1.51584 1.18657,1.81633 4.40078,1.8129 2.86717,-0.003 4.9005,0.46135 4.99811,1.12792 0.0249,0.17026 -0.19781,0.79965 -0.50112,1.41107 -0.42959,0.86597 -0.64005,0.98584 -0.93602,0.51848 -0.27026,-0.42685 -0.4334,-0.3935 -0.58108,0.13288 -0.15039,0.53591 -0.27875,0.55826 -0.46912,0.0848 -0.19108,-0.48206 -0.32665,-0.44387 -0.49305,0.14955 -0.13971,0.49775 -0.32568,0.64859 -0.51598,0.37935 -0.49252,-0.70617 -3.76885,-0.1391 -4.00245,0.69344 -0.15737,0.56104 -0.31073,0.56125 -0.65596,0.0167 -0.30981,-0.48933 -0.47232,-0.51729 -0.50838,-0.1 -0.0319,0.36931 -0.27412,0.43873 -0.62392,0.17824 -0.31767,-0.23602 -0.59408,-0.19244 -0.61892,0.094 -0.0245,0.28647 -0.24564,0.37091 -0.4861,0.19191 -0.24055,-0.17905 -0.41822,-0.13731 -0.38479,0.0899 0.0333,0.2271 -0.90019,0.49269 -2.08755,0.5965 -1.42705,0.12467 -2.23689,0.43802 -2.37252,0.92188 -0.25511,0.9095 -0.4328,0.80491 -0.49011,-0.28392 -0.051,-0.96576 2.63131,-2.2881 7.13302,-3.52093 1.46138,-0.40027 2.88515,-1.0262 3.15824,-1.39289 0.65117,-0.87493 0.47048,-0.95336 -1.45826,-0.67079 -1.61396,0.23649 -2.97782,-0.59238 -4.02679,-2.43976 -0.25632,-0.45128 -0.74139,-0.49108 -1.53201,-0.11947 -0.63595,0.29899 -1.16873,0.41222 -1.19248,0.2499 -0.0238,-0.16227 0.30037,-0.3808 0.73601,-0.48704 0.92021,-0.22344 2.78986,-3.42718 2.03651,-3.49242 -0.64197,-0.0556 1.2151,-1.60495 2.55614,-2.13085 0.58324,-0.22879 1.43848,-0.28202 1.90761,-0.12 0.46882,0.16241 1.11927,0.12922 1.43911,-0.0737 0.33633,-0.21293 0.75143,-0.10851 0.98527,0.26066 0.23895,0.37735 0.81185,0.51642 1.40576,0.34388 0.34523,-0.10034 0.60369,-0.1252 0.71431,-0.0733 z m -4.61739,4.4993 c 0.4012,0.20842 0.54542,0.73557 0.31939,1.17066 -0.22603,0.43509 -0.73633,0.61263 -1.13752,0.40421 -0.40111,-0.20837 -0.54163,-0.724 -0.3156,-1.1591 0.22603,-0.43509 0.73262,-0.62414 1.13373,-0.41577 z m -8.77196,-1.82292 c 0.11769,0.0724 0.092,0.22255 -1.2e-4,0.50228 -0.11856,0.36044 -0.0563,1.39943 0.13696,2.30296 0.3177,1.48586 0.14388,2.8213 -0.24325,1.84442 -0.087,-0.21965 -0.7377,-0.50121 -1.44755,-0.61677 -0.95167,-0.15486 -1.16266,-0.29341 -0.80121,-0.52215 0.26966,-0.1707 0.38401,-0.852 0.25341,-1.51066 -0.2876,-1.45355 -0.0687,-1.80323 1.28098,-2.00098 0.4434,-0.065 0.70264,-0.071 0.82068,0.001 z m -1.54085,5.16042 c 0.36153,0.18782 0.4951,0.64632 0.29857,1.02461 -0.19652,0.37831 -0.64846,0.53264 -1.00998,0.34483 -0.36153,-0.18781 -0.4951,-0.64631 -0.29857,-1.02461 0.19652,-0.3783 0.64846,-0.53263 1.00998,-0.34483 z"
       id="path4246"
       inkscape:connector-curvature="0"
       inkscape:export-filename="/home/woelper/Documents/leukosia/webfrontend/static/img/logo_large.png"
       inkscape:export-xdpi="102.29155"
       inkscape:export-ydpi="102.29155" />
    <path
       style="fill:#ffcc00;stroke:none"
       d="m 230.01443,563.73154 c -0.75,0 -1.5172,0.01 -2.2958,0.026 -14.089,0.3364 -27.6279,3.3642 -29.2755,3.6715 -1.8011,0.336 -0.8825,4.9916 -0.8825,4.9916 0,0 12.7923,7.6937 30.9136,8.2885 18.1214,0.5949 34.3551,-8.0285 34.3551,-8.0285 0,0 -9.5639,-8.9316 -32.8149,-8.9491 z m -6.8256,4.1639 c 11.3389,-0.1376 15.9925,4.4111 15.9925,4.4111 0,0 -7.6478,4.2489 -16.1824,3.9557 -8.5346,-0.2932 -16.1783,-4.9836 -16.1783,-4.9836 0,0 4.0882,-3.077 15.8232,-3.3702 0.1833,0 0.3651,-0.011 0.545,-0.013 z"
       id="path4248"
       inkscape:connector-curvature="0"
       sodipodi:nodetypes="ccscsccccsccc" />
    <use
       x="0"
       y="0"
       xlink:href="#path3724"
       id="use4265"
       transform="translate(-186.87822,1.0101525)"
       width="744.09448"
       height="1052.3622" />
    <use
       x="0"
       y="0"
       xlink:href="#path4611"
       id="use4267"
       transform="translate(-186.87822,1.0101525)"
       width="744.09448"
       height="1052.3622" />
    <use
       x="0"
       y="0"
       xlink:href="#use3282"
       id="use4275"
       transform="translate(158.57143,-1.4285714)"
       width="744.09448"
       height="1052.3622" />
    <use
       x="0"
       y="0"
       xlink:href="#rect4619-9"
       id="use4277"
       transform="translate(158.57143,-1.4285714)"
       width="744.09448"
       height="1052.3622" />
    <text
       sodipodi:linespacing="125%"
       id="text4281"
       y="342.40714"
       x="359.41327"
       style="font-size:12.93640614px;font-style:normal;font-variant:normal;font-weight:normal;font-stretch:normal;text-align:start;line-height:125%;letter-spacing:0px;word-spacing:0px;writing-mode:lr-tb;text-anchor:start;fill:#e3dbdb;fill-opacity:1;stroke:none;font-family:Arial Black;-inkscape-font-specification:'Arial Black,'"
       xml:space="preserve"><tspan
         y="342.40714"
         x="359.41327"
         id="tspan4283"
         sodipodi:role="line">TURBOSLOTH</tspan></text>
    <path
       style="fill:#ffcc00;fill-opacity:1;color:#000000;fill-rule:nonzero;stroke:none;stroke-width:1;marker:none;visibility:visible;display:inline;overflow:visible;enable-background:accumulate"
       d="M 563.40625 272.03125 L 565.125 274.0625 L 569.375 281.15625 C 573.8754 287.73064 570.4617 284.12108 576.34375 291.65625 C 577.10831 292.63891 577.97215 293.78313 578.25 294.21875 C 579.24864 295.78433 581.82343 299.12063 582.09375 299.1875 C 582.76027 299.35235 585.8344 303.06561 585.71875 303.5625 C 585.64825 303.86522 585.82977 304.05366 586.09375 303.96875 C 586.35782 303.88385 587.79952 305.49817 589.3125 307.5625 C 591.40134 310.41265 592.19456 311.94593 592.625 313.9375 C 592.93673 315.37993 593.11321 316.82501 593.03125 317.15625 C 592.94925 317.48752 592.98965 318.64569 593.09375 319.71875 C 593.1978 320.79172 593.13121 321.74567 592.96875 321.84375 C 592.80625 321.94175 591.23017 321.70587 589.4375 321.34375 C 587.64484 320.98177 585.77949 320.62107 585.3125 320.53125 C 584.84549 320.44165 583.67299 320.69686 582.71875 321.09375 C 581.7645 321.49065 580.89711 321.80726 580.78125 321.78125 C 579.94147 321.59219 578.11319 322.95269 576.09375 325.28125 C 574.7874 326.78759 573.59851 328.10501 573.4375 328.1875 C 573.2765 328.27 572.63218 329.04447 572.03125 329.90625 C 570.79147 331.68421 570.27773 334.23779 570.65625 336.6875 C 570.97724 338.76496 574.69115 344.7648 576.5 346.125 C 578.03193 347.27687 582.02653 348.04986 585.53125 347.875 C 587.42578 347.7804 587.67263 347.85279 588.78125 348.96875 C 590.01068 350.2064 591.40027 352.57987 591.25 353.1875 C 591.2037 353.37394 591.39054 353.42918 591.65625 353.34375 C 591.92202 353.25825 592.09499 353.42963 592.03125 353.6875 C 591.96755 353.94521 592.11932 354.06097 592.40625 353.96875 C 592.69321 353.87645 593.12797 354.25366 593.34375 354.8125 C 593.57159 355.40253 594.03802 355.79978 594.4375 355.75 C 594.84187 355.6997 595.42834 356.22315 595.875 357.03125 C 596.29291 357.7873 596.68311 358.20808 596.75 357.9375 C 596.8399 357.57407 597.00598 357.62505 597.375 358.125 C 597.75808 358.64432 598.04721 358.7329 598.59375 358.46875 C 599.00398 358.27046 599.35532 358.30665 599.4375 358.5625 C 599.58336 359.01605 601.415 360.05544 603.125 360.65625 C 603.9063 360.93076 604.06869 360.79897 604.0625 360.03125 L 604.0625 359.09375 L 604.53125 360.1875 C 604.89195 360.97154 605.29906 361.21 605.96875 361.125 C 606.56857 361.0488 607.09368 361.30477 607.46875 361.84375 C 607.94252 362.52432 608.0552 362.57657 608.1875 362.09375 C 608.2758 361.77196 608.5007 362.02986 608.6875 362.6875 C 608.89312 363.41118 609.11163 363.62723 609.21875 363.25 C 609.37553 362.69584 609.40211 362.72696 609.625 363.375 C 609.80723 363.9048 609.92801 363.95998 610.03125 363.5625 C 610.11005 363.26179 610.33601 363.17555 610.53125 363.375 C 610.72649 363.57445 610.93265 363.52217 611 363.25 C 611.0912 362.88104 611.25268 362.90185 611.625 363.40625 C 612.02771 363.95217 612.15646 363.9926 612.28125 363.53125 C 612.38865 363.13475 612.52092 363.21327 612.6875 363.78125 C 612.81971 364.23178 613.18492 364.54312 613.53125 364.5 C 613.87753 364.4569 614.25117 364.68035 614.34375 364.96875 C 614.43645 365.25691 614.70348 365.41904 614.9375 365.34375 C 615.17154 365.26845 615.45515 365.64232 615.59375 366.1875 C 615.73236 366.73268 616.10887 367.15801 616.40625 367.125 C 616.70365 367.0919 617.44046 367.56702 618.0625 368.1875 C 618.76275 368.88587 619.33638 369.19013 619.5625 368.96875 C 619.92778 368.61119 622.67238 370.2544 623.5625 371.375 C 623.83883 371.72277 624.02431 371.78083 624.09375 371.5 C 624.15255 371.26283 624.5468 371.25335 625 371.5 C 625.46095 371.75075 626.05322 371.75493 626.3125 371.5 C 626.64436 371.17511 626.79607 371.32828 626.84375 372.0625 C 626.89575 372.86236 627.00253 373.00549 627.40625 372.625 C 627.7335 372.31649 627.99151 372.30994 628.125 372.625 C 628.38394 373.23578 632.31532 374.31055 632.125 373.71875 C 632.05 373.48546 632.7355 373.57831 633.65625 373.90625 C 634.57692 374.23419 635.38568 374.33453 635.4375 374.125 C 635.4892 373.91546 635.69329 373.87677 635.875 374.0625 C 636.05678 374.24815 636.35012 374.23928 636.5625 374.03125 C 636.8311 373.76831 637.11076 373.83824 637.4375 374.28125 C 637.80319 374.77685 637.9468 374.79004 638.0625 374.34375 C 638.17945 373.89324 638.27179 373.92732 638.46875 374.5 C 638.67965 375.11326 638.73759 375.09608 638.90625 374.4375 C 639.0667 373.81103 639.18654 373.80288 639.5625 374.3125 C 639.89979 374.76965 640.15179 374.84218 640.4375 374.5625 C 640.72051 374.28535 640.99143 374.36602 641.34375 374.84375 C 641.74078 375.38195 641.95056 375.40683 642.375 375 C 642.82933 374.56468 642.87248 374.58325 642.75 375.125 C 642.63167 375.64772 642.70399 375.65303 643.125 375.25 C 643.40472 374.98208 643.78525 374.96802 644 375.1875 C 644.23765 375.4303 644.36181 375.33339 644.3125 374.9375 C 644.2557 374.48061 644.52171 374.37472 645.1875 374.59375 C 646.22328 374.93451 647.43438 374.60473 647.25 374.03125 C 647.1863 373.83295 647.60192 373.82769 648.15625 374.03125 C 648.91014 374.308 649.19782 374.21457 649.34375 373.625 C 649.47678 373.08717 649.72627 372.94075 650.125 373.21875 C 650.49119 373.47402 650.70885 373.42978 650.71875 373.0625 C 650.72775 372.73997 650.93798 372.51189 651.1875 372.5625 C 651.74962 372.67654 653.37174 371.73681 653.5 371.21875 C 653.62296 370.72171 656.00178 370.21137 656.71875 370.53125 C 657.02886 370.66958 657.25077 370.52488 657.21875 370.1875 C 657.14895 369.44788 658.68394 368.47714 659.3125 368.875 C 659.56362 369.03395 659.8598 368.90749 659.9375 368.59375 C 660.11069 367.8936 662.04479 366.88018 662.4375 367.28125 C 662.75041 367.60081 664.21664 366.85665 665.5 365.71875 C 666.13592 365.15513 666.43004 365.11779 666.78125 365.59375 C 667.03081 365.93209 667.23803 366.03435 667.25 365.8125 C 667.3028 364.84734 667.67659 364.35573 668.0625 364.75 C 668.34702 365.04062 668.44457 364.93299 668.375 364.375 C 668.2996 363.76957 668.41787 363.64049 668.84375 363.9375 C 669.20101 364.18664 669.49509 364.08621 669.59375 363.6875 C 669.68085 363.33541 669.89844 363.238 670.09375 363.4375 C 670.29618 363.64438 670.59641 363.29197 670.78125 362.625 C 670.95948 361.98201 671.14174 361.73437 671.1875 362.0625 C 671.245 362.47241 671.74597 362.3331 672.8125 361.65625 C 673.66598 361.11422 674.5315 360.83996 674.71875 361.03125 C 674.90602 361.22255 675.11978 361.14862 675.1875 360.875 C 675.255 360.60148 676.17168 359.36842 677.21875 358.125 C 678.79006 356.25934 679.29526 355.22361 680.21875 352.15625 C 680.83394 350.11196 681.72825 347.70853 682.1875 346.84375 C 683.24322 344.85735 683.40039 344.29672 682.6875 344.96875 C 682.29591 345.33693 682.31262 344.82413 682.78125 343.3125 C 683.15102 342.11985 683.30275 341.10648 683.125 341.0625 C 682.32747 340.86524 684.42689 338.7065 686.21875 337.875 C 687.30901 337.3692 688.28139 336.65948 688.375 336.28125 C 688.64438 335.19227 687.4274 332.36605 686.59375 332.15625 C 686.17762 332.05069 685.95947 331.84939 686.125 331.6875 C 686.48146 331.33844 685.20139 331.05687 684.40625 331.3125 C 684.10163 331.4105 683.83819 331.2198 683.8125 330.90625 C 683.7754 330.45852 683.59105 330.43632 682.9375 330.75 C 682.47959 330.96983 681.84012 330.96605 681.53125 330.75 C 681.22234 330.53467 680.8343 330.51332 680.65625 330.6875 C 680.47808 330.86176 679.96415 330.89236 679.53125 330.75 C 678.89834 330.54189 678.78139 329.94264 678.9375 327.71875 C 679.04414 326.19753 679.25327 324.07371 679.40625 323 C 679.55929 321.9263 679.6708 319.99477 679.625 318.71875 C 679.5391 316.34586 680.6462 311.57072 681.25 311.71875 C 681.43433 311.76435 681.49307 311.45976 681.375 311.03125 C 681.25591 310.59606 681.44648 309.61325 681.84375 308.8125 C 682.23501 308.02448 682.86581 306.28784 683.21875 304.96875 C 683.57164 303.64966 683.91617 302.34751 684 302.0625 C 684.44267 300.56064 684.77323 296.13634 684.53125 294.71875 C 684.37861 293.82494 684.24539 292.99616 684.25 292.875 C 684.259 292.64525 683.26527 290.65974 682.03125 288.375 C 681.6349 287.64143 680.983 286.14057 680.5625 285.03125 L 675.15625 273.84375 C 675.01516 273.69951 674.67145 272.93712 674.21875 272.03125 L 664.46875 272.03125 C 665.33419 275.5935 666.84617 281.61748 667.6875 284.75 C 666.47949 281.55662 663.62334 275.67647 661.5 272.03125 L 652.375 272.03125 L 652 275.1875 C 652.50529 275.1925 651.12373 279.00679 651.375 279.0625 C 651.51249 279.0929 651.60145 279.14029 651.625 279.1875 C 651.89869 279.7359 653.42941 292.78386 653.40625 294.40625 C 653.38775 295.70774 652.48799 300.02613 651.1875 305.15625 C 649.99157 309.8745 648.89574 315.11289 648.71875 316.78125 C 647.87361 324.74846 647.33224 329.48073 647.125 330.84375 C 646.96152 331.91917 646.70235 332.33735 646.21875 332.3125 C 645.76796 332.2895 645.59466 331.89429 645.71875 331.125 C 645.82032 330.49467 645.78521 329.70648 645.625 329.375 C 645.4646 329.0435 645.45737 328.67607 645.59375 328.59375 C 645.73012 328.51145 645.79789 327.75799 645.75 326.90625 C 645.7019 326.05454 645.70265 324.68035 645.78125 323.84375 C 645.85985 323.00716 645.72839 321.9312 645.46875 321.4375 C 645.20887 320.94365 645.15283 320.4277 645.34375 320.3125 C 645.53469 320.19733 645.52451 319.60402 645.3125 319 C 645.09892 318.3915 645.10181 317.89516 645.34375 317.875 C 645.59082 317.8544 645.62621 317.25066 645.4375 316.46875 C 645.19393 315.45833 645.28214 315.03659 645.6875 314.90625 C 646.0736 314.7821 646.04159 314.2164 645.59375 313.0625 C 645.24018 312.15117 644.8115 311.30793 644.65625 311.1875 C 644.50111 311.06706 644.54039 310.83077 644.71875 310.65625 C 644.897 310.48168 644.92913 309.96191 644.8125 309.5 C 644.69586 309.03806 644.65702 308.15869 644.71875 307.5625 C 644.78045 306.96626 644.61004 305.54102 644.34375 304.40625 C 644.07745 303.27146 644.01203 302.20304 644.1875 302.03125 C 644.36299 301.85947 644.26864 301.66019 644 301.59375 C 643.7313 301.52735 643.66882 301.23316 643.875 300.9375 C 644.08114 300.64186 644.00887 300.22409 643.6875 300 C 643.35924 299.7711 643.27837 299.34908 643.5 299.03125 C 643.74357 298.68194 643.64563 298.41035 643.25 298.3125 C 642.89773 298.2254 642.76929 297.97651 642.96875 297.78125 C 643.16819 297.58599 643.1126 297.37899 642.84375 297.3125 C 642.57495 297.246 642.53182 296.93792 642.75 296.625 C 642.96821 296.3121 642.97279 296.02396 642.75 295.96875 C 642.52678 295.91355 642.42993 295.50344 642.53125 295.09375 C 642.63261 294.68406 642.51291 293.88225 642.28125 293.28125 C 641.98226 290.72472 641.40726 287.49641 642.0625 284.71875 C 644.55303 276.45278 644.31167 274.02454 644.0625 272.03125 L 630.6875 272.03125 C 631.32681 277.67571 629.6151 280.42507 630.3125 284.09375 C 630.5781 285.50117 630.70194 288.0073 630.5625 289.65625 C 630.36353 292.01086 629.9301 293.56958 628.59375 296.90625 C 627.26132 300.23311 627.00855 300.68177 627.375 299.03125 C 627.50421 298.44906 627.55938 298.02794 627.5625 297.59375 L 626.4375 302.15625 L 626.34375 302.5 L 626.03125 303.875 L 625.9375 303.84375 L 625.53125 305.28125 C 624.98918 307.10388 624.1213 309.5108 623.59375 310.65625 C 622.93815 312.07974 622.49762 313.93834 622.1875 316.53125 C 621.93777 318.61784 621.13149 322.29866 620.40625 324.6875 C 619.04146 329.18263 617.34602 332.57059 618.09375 329.3125 C 618.29304 328.44459 618.27472 327.70876 618.0625 327.65625 C 617.85035 327.60385 617.695 326.91408 617.71875 326.125 C 617.74255 325.33598 617.52712 323.83587 617.21875 322.78125 C 616.9104 321.7266 616.64033 320.64693 616.65625 320.40625 C 616.88063 316.98835 614.52322 309.37641 612.84375 308.09375 C 611.77141 307.2748 609.82535 305.01462 609.90625 304.6875 C 609.95755 304.47976 609.74302 304.26307 609.4375 304.1875 C 608.76315 304.0207 607.51659 301.84727 607.6875 301.15625 C 607.7551 300.88299 607.65072 300.66243 607.46875 300.65625 C 606.26894 299.73551 604.60018 297.20003 603.6875 295.6875 C 605.9145 292.99072 606.46753 293.77232 603.21875 292.96875 L 604.40625 288.1875 C 604.03971 288.34278 603.64648 288.4348 603.21875 288.40625 C 602.98246 288.34785 602.81339 288.68853 602.84375 289.15625 C 602.87925 289.70193 602.65653 290.03531 602.1875 290.09375 C 601.78525 290.14375 601.5352 290.40825 601.625 290.6875 C 601.7147 290.96674 601.48652 291.42077 601.125 291.6875 C 600.36337 292.24936 599.71203 292.13436 598.96875 291.34375 C 598.67827 291.03481 598.05588 290.68811 597.5625 290.5625 C 597.06906 290.43703 596.19416 289.62454 595.625 288.75 C 595.0558 287.87545 594.21784 287.07673 593.78125 286.96875 C 593.34465 286.86076 593.07693 286.50825 593.15625 286.1875 C 593.23565 285.86676 592.85297 285.38089 592.3125 285.09375 C 591.77206 284.8066 591.38225 284.37962 591.4375 284.15625 C 591.4928 283.93288 590.79174 283.43796 589.90625 283.0625 C 589.02074 282.68704 588.33596 282.25143 588.375 282.09375 C 588.83223 281.11038 589.22882 280.20495 589.59375 279.3125 L 588.59375 279.0625 C 588.55345 279.1013 588.51927 279.12576 588.46875 279.15625 C 587.43377 279.78077 586.23492 280.20979 585.84375 280.09375 C 585.41162 279.96552 585.36868 279.83096 585.71875 279.78125 C 586.64302 279.65001 586.55947 278.95762 585.59375 278.71875 C 584.69977 278.49763 581.85815 276.07207 581.96875 275.625 C 580.92014 274.23237 579.83012 273.05327 578.75 272.03125 L 563.40625 272.03125 z M 585.3125 326.34375 C 585.3837 326.34675 585.39494 326.40782 585.375 326.5 C 585.24313 327.11077 589.64534 327.87657 592.1875 327.6875 C 593.35091 327.6009 594.38952 327.644 595 327.75 C 595.61045 327.8561 595.78833 328.02897 595.21875 328.21875 C 594.83166 328.34766 594.38029 328.32142 594.21875 328.15625 C 593.78228 327.71032 589.57923 329.0626 589.75 329.59375 C 589.8306 329.84456 589.64329 329.95681 589.3125 329.875 C 588.9813 329.793 588.42278 329.95291 588.0625 330.21875 C 587.70225 330.48452 586.48908 330.61209 585.375 330.5 C 583.12544 330.27358 581.38818 331.00466 580.59375 332.5 C 580.22261 333.1985 580.2549 333.71441 580.6875 334.25 C 581.65029 335.44191 582.43654 335.42965 585.3125 334.21875 C 587.87797 333.13853 589.84966 332.78377 590.1875 333.34375 C 590.2738 333.48676 590.32312 334.11997 590.28125 334.78125 C 590.22215 335.71789 590.06558 335.90094 589.625 335.59375 C 589.22264 335.31318 589.0906 335.41082 589.15625 335.9375 C 589.22295 336.47374 589.12606 336.53952 588.78125 336.1875 C 588.42907 335.82774 588.33226 335.90629 588.40625 336.5 C 588.46825 336.998 588.33119 337.23182 588.0625 337.0625 C 587.35624 336.61548 584.64626 338.35439 584.75 339.1875 C 584.82 339.74879 584.6694 339.79526 584.15625 339.4375 C 583.69501 339.11589 583.56298 339.1441 583.6875 339.53125 C 583.79763 339.87383 583.5984 340.03917 583.1875 339.9375 C 582.81454 339.8453 582.57082 339.98425 582.65625 340.25 C 582.74175 340.51571 582.59506 340.66363 582.3125 340.59375 C 582.02994 340.52385 581.88482 340.6216 582 340.8125 C 582.11517 341.00336 581.36769 341.61716 580.34375 342.15625 C 579.1132 342.80404 578.50215 343.39082 578.5625 343.875 C 578.67586 344.78501 578.49181 344.73419 578.03125 343.78125 C 577.62268 342.9359 579.52716 340.76389 583.09375 337.96875 C 584.25157 337.06133 585.2997 335.9621 585.40625 335.53125 C 585.66047 334.50328 585.46442 334.49091 583.84375 335.46875 C 582.4878 336.28699 580.9457 336.07209 579.3125 334.8125 C 578.91348 334.50478 578.47434 334.65136 577.90625 335.28125 C 577.44929 335.78787 577.01974 336.07381 576.9375 335.9375 C 576.8552 335.80112 577.05574 335.47748 577.40625 335.21875 C 578.14605 334.67302 578.60518 331.11904 577.90625 331.34375 C 577.31066 331.53522 578.40342 329.4434 579.40625 328.46875 C 579.84238 328.04482 580.58164 327.68747 581.0625 327.65625 C 581.54331 327.62495 582.10229 327.33265 582.3125 327.03125 C 582.53357 326.71416 582.96449 326.66361 583.3125 326.90625 C 583.66815 327.15422 584.22068 327.06499 584.6875 326.6875 C 584.95888 326.46796 585.19395 326.33887 585.3125 326.34375 z M 582.84375 332.125 C 583.28114 332.1608 583.6326 332.55683 583.59375 333.03125 C 583.55495 333.50568 583.15614 333.87957 582.71875 333.84375 C 582.28135 333.80795 581.96116 333.38068 582 332.90625 C 582.0388 332.43183 582.40635 332.08918 582.84375 332.125 z M 574.3125 333.78125 C 574.44504 333.80195 574.47738 333.93371 574.5 334.21875 C 574.5292 334.58592 574.98754 335.51377 575.5 336.25 C 576.34273 337.46072 576.68244 338.69777 575.96875 337.96875 C 575.80832 337.80481 575.11639 337.8063 574.4375 337.96875 C 573.52741 338.1877 573.29355 338.1533 573.53125 337.8125 C 573.70847 337.5583 573.55159 336.88429 573.1875 336.34375 C 572.38383 335.15062 572.45978 334.77802 573.59375 334.09375 C 573.96629 333.86894 574.17982 333.761 574.3125 333.78125 z M 574.875 338.96875 C 575.26917 339.00095 575.56503 339.36872 575.53125 339.78125 C 575.49745 340.19377 575.14418 340.50103 574.75 340.46875 C 574.35582 340.43655 574.05997 340.06878 574.09375 339.65625 C 574.12755 339.24374 574.48082 338.93648 574.875 338.96875 z "
       id="use4285"
       inkscape:export-xdpi="49.562763"
       inkscape:export-ydpi="49.562763"
       inkscape:export-filename="/home/woelper/Documents/leukosia/webfrontend/static/img/logo.png" />
    <rect
       style="color:#000000;fill:none;stroke:#916f6f;stroke-width:5.08129406;stroke-miterlimit:4;stroke-dasharray:none;marker:none;visibility:visible;display:inline;overflow:visible;enable-background:accumulate"
       id="rect4287"
       width="137.06157"
       height="135.633"
       x="222.90636"
       y="381.35931"
       inkscape:export-filename="/home/woelper/Documents/leukosia/webfrontend/static/img/logo.png"
       inkscape:export-xdpi="37.161289"
       inkscape:export-ydpi="37.161289" />
    <text
       sodipodi:linespacing="125%"
       id="text4289"
       y="316.83313"
       x="695.78906"
       style="font-size:40.52305602999999934px;font-style:normal;font-variant:normal;font-weight:normal;font-stretch:normal;text-align:start;line-height:125%;letter-spacing:0px;word-spacing:0px;writing-mode:lr-tb;text-anchor:start;fill:#ffcc00;fill-opacity:1;stroke:none;font-family:Arial Black;-inkscape-font-specification:'Arial Black,';color:#000000;fill-rule:nonzero;stroke-width:1;marker:none;visibility:visible;display:inline;overflow:visible;enable-background:accumulate"
       xml:space="preserve"
       inkscape:export-filename="/home/woelper/Documents/leukosia/webfrontend/static/img/logo.png"
       inkscape:export-xdpi="49.562763"
       inkscape:export-ydpi="49.562763"><tspan
         y="316.83313"
         x="695.78906"
         id="tspan4291"
         sodipodi:role="line">TURBO</tspan><tspan
         y="367.48694"
         x="695.78906"
         sodipodi:role="line"
         id="tspan3070" /></text>
    <rect
       style="color:#000000;fill:none;stroke:none;stroke-width:5;stroke-linecap:butt;stroke-linejoin:miter;stroke-miterlimit:4;stroke-opacity:1;stroke-dasharray:none;stroke-dashoffset:0;marker:none;visibility:visible;display:inline;overflow:visible;enable-background:accumulate"
       id="rect3065"
       width="155"
       height="155"
       x="548.57147"
       y="259.50504"
       inkscape:export-filename="/home/woelper/Documents/leukosia/webfrontend/static/img/logo.png"
       inkscape:export-xdpi="37.161289"
       inkscape:export-ydpi="37.161289" />
    <text
       sodipodi:linespacing="125%"
       id="text4289-3"
       y="356.35999"
       x="695.75671"
       style="font-size:42.88913726999999909px;font-style:normal;font-variant:normal;font-weight:normal;font-stretch:normal;text-align:start;line-height:125%;letter-spacing:0px;word-spacing:0px;writing-mode:lr-tb;text-anchor:start;fill:#ffcc00;fill-opacity:1;stroke:none;font-family:Arial Black;-inkscape-font-specification:'Arial Black,';color:#000000;fill-rule:nonzero;stroke-width:1;marker:none;visibility:visible;display:inline;overflow:visible;enable-background:accumulate"
       xml:space="preserve"
       inkscape:transform-center-x="-17.106134"
       inkscape:transform-center-y="-44.903633"
       inkscape:export-filename="/home/woelper/Documents/leukosia/webfrontend/static/img/logo.png"
       inkscape:export-xdpi="49.562763"
       inkscape:export-ydpi="49.562763"><tspan
         y="356.35999"
         x="695.75671"
         sodipodi:role="line"
         id="tspan3070-8">SLOTH</tspan></text>
  </g>
</svg>
